<svg xmlns="http://www.w3.org/2000/svg" viewBox="0 0 1000 600" id="ideation">
  <g id="ideation">
    <rect width="54.799" height="54.799" x="172.428" y="349.382" fill="#d9ebff" rx="2"></rect>
    <rect width="155.25" height="27.436" x="591.774" y="69.065" fill="#d9ebff" rx="2"></rect>
    <rect width="63.412" height="26.408" x="534.264" y="480.057" fill="#d9ebff" rx="2"></rect>
    <rect width="186.861" height="368.639" x="620.643" y="115.928" fill="#d9ebff" rx="2"></rect>
    <rect width="202.627" height="89.184" x="261.981" y="395.383" fill="#d9ebff" rx="2"></rect>
    <rect width="405.098" height="262.119" x="150.796" y="63.714" fill="#d9ebff" rx="2"></rect>
    <circle cx="247.341" cy="320.689" r="3.911" fill="#a9c0ff"></circle>
    <circle cx="247.341" cy="310.876" r="3.911" fill="#a9c0ff"></circle>
    <circle cx="247.341" cy="301.063" r="3.911" fill="#a9c0ff"></circle>
    <circle cx="581.961" cy="154.156" r="3.911" fill="#a9c0ff"></circle>
    <circle cx="591.774" cy="154.156" r="3.911" fill="#a9c0ff"></circle>
    <circle cx="601.587" cy="154.156" r="3.911" fill="#a9c0ff"></circle>
    <path fill="#a9c0ff" d="M276.144 337.30566H247.34131a1.50007 1.50007 0 0 1-1.5-1.5V154.15625a1.49977 1.49977 0 0 1 1.5-1.5H719.66406a1.49976 1.49976 0 0 1 1.5 1.5V322.50488a1.5 1.5 0 1 1-3 0V155.65625H248.84131V334.30566H276.144a1.5 1.5 0 0 1 0 3ZM846.84285 362.761V523.51286a5.235 5.235 0 0 1-5.23621 5.23622H680.09574a5.25149 5.25149 0 0 1-5.23622-5.23622v-183.032a5.23463 5.23463 0 0 1 5.23622-5.23622H819.30031Z"></path>
    <path fill="#4d76b8" d="M847.6022,363.52019H821.91842a2.61811,2.61811,0,0,1-2.61811-2.61811V335.24466L846.84285,362.761Z"></path>
    <rect width="45.6" height="40.32" x="696.864" y="370.265" fill="#fff" rx="2"></rect>
    <rect width="121.396" height="3" x="697.904" y="492.605" fill="#456ba3"></rect>
    <rect width="121.396" height="3" x="697.904" y="478.205" fill="#456ba3"></rect>
    <rect width="121.396" height="3" x="697.904" y="463.805" fill="#456ba3"></rect>
    <rect width="121.396" height="3" x="697.904" y="449.405" fill="#456ba3"></rect>
    <rect width="121.396" height="3" x="697.904" y="435.005" fill="#456ba3"></rect>
    <rect width="121.396" height="3" x="697.904" y="420.605" fill="#456ba3"></rect>
    <rect width="63.396" height="3" x="755.904" y="406.205" fill="#456ba3"></rect>
    <rect width="63.396" height="3" x="755.904" y="391.805" fill="#456ba3"></rect>
    <rect width="63.396" height="3" x="755.904" y="377.405" fill="#456ba3"></rect>
    <path fill="#a9c0ff" d="M271.85722,499.62066H234.99883a20.5941,20.5941,0,0,1-20.57032-20.57129v-8.168a20.5941,20.5941,0,0,1,20.57032-20.57128h36.85839a20.59493,20.59493,0,0,1,20.57129,20.57128v8.168A20.59493,20.59493,0,0,1,271.85722,499.62066Zm-36.85839-43.31054a14.58755,14.58755,0,0,0-14.57032,14.57128v8.168a14.58755,14.58755,0,0,0,14.57032,14.57129h36.85839a14.58838,14.58838,0,0,0,14.57129-14.57129v-8.168a14.58838,14.58838,0,0,0-14.57129-14.57128Z"></path>
    <path fill="#a9c0ff" d="M266.02812,428.658l-3.60009,36.7-1.87989,19.21L256.618,524.69781a3.01237,3.01237,0,0,1-2.98975,2.71021h-72.3999a3.0132,3.0132,0,0,1-2.99024-2.71021l-3.92968-40.12988-1.88037-19.21-3.6001-36.69995a3.00968,3.00968,0,0,1,2.99023-3.3h91.21973A3.0094,3.0094,0,0,1,266.02812,428.658Z"></path>
    <polygon fill="#92b1ef" points="262.428 465.358 260.548 484.568 174.308 484.568 172.428 465.358 262.428 465.358"></polygon>
    <g opacity=".19">
      <path fill="#aaa" d="M187.54986,362.46667a5.98634,5.98634,0,0,1-.26807,2.65759,9.13422,9.13422,0,0,1-1.36084,2.348,8.35,8.35,0,0,0-1.2583,2.09693,5.89576,5.89576,0,0,0,.20264,4.45764,8.312,8.312,0,0,0,1.4043,1.89233,9.40179,9.40179,0,0,1,1.65185,2.35547,7.22154,7.22154,0,0,1-.00244,5.89392,9.5219,9.5219,0,0,1-1.65088,2.35511,8.291,8.291,0,0,0-1.40234,1.89209,5.90485,5.90485,0,0,0-.53565,2.183,5.84547,5.84547,0,0,0,.33643,2.27344,8.33448,8.33448,0,0,0,1.25732,2.0968,9.14365,9.14365,0,0,1,1.35987,2.34936,5.98238,5.98238,0,0,1,.26611,2.65833,6.6369,6.6369,0,0,0-.77148-2.42957,9.2,9.2,0,0,0-1.60157-1.94091,9.25743,9.25743,0,0,1-1.70459-2.19288,6.85985,6.85985,0,0,1-.70263-2.81408,6.73883,6.73883,0,0,1,.49951-2.90552,9.98082,9.98082,0,0,1,1.5581-2.3988,8.42478,8.42478,0,0,0,1.312-1.93372,5.80876,5.80876,0,0,0,.00341-4.28186,8.48094,8.48094,0,0,0-1.30957-1.93445,10.008,10.008,0,0,1-1.55957-2.39612,6.73539,6.73539,0,0,1-.501-2.90454,6.8304,6.8304,0,0,1,.70166-2.81323,9.21316,9.21316,0,0,1,1.70361-2.19275,9.19387,9.19387,0,0,0,1.60156-1.94141A6.631,6.631,0,0,0,187.54986,362.46667Z"></path>
    </g>
    <g opacity=".19">
      <path fill="#aaa" d="M217.10415,343.69569a5.98716,5.98716,0,0,1-.26807,2.65771,9.1335,9.1335,0,0,1-1.36084,2.3479,8.35419,8.35419,0,0,0-1.2583,2.09693,5.89576,5.89576,0,0,0,.20264,4.45764,8.312,8.312,0,0,0,1.4043,1.89233,9.40255,9.40255,0,0,1,1.65185,2.35559,7.22126,7.22126,0,0,1-.00244,5.8938,9.52511,9.52511,0,0,1-1.65088,2.35523,8.291,8.291,0,0,0-1.40234,1.89209,5.902,5.902,0,0,0-.19922,4.45642,8.334,8.334,0,0,0,1.25732,2.09668,9.14264,9.14264,0,0,1,1.35987,2.34948,5.98221,5.98221,0,0,1,.26611,2.65833,6.63678,6.63678,0,0,0-.77148-2.42969,9.19941,9.19941,0,0,0-1.60157-1.94079,9.26052,9.26052,0,0,1-1.70459-2.193,6.85938,6.85938,0,0,1-.70263-2.81408,6.7383,6.7383,0,0,1,.49951-2.9054,9.9817,9.9817,0,0,1,1.5581-2.39893,8.42436,8.42436,0,0,0,1.312-1.93371,5.80869,5.80869,0,0,0,.00342-4.28186,8.48355,8.48355,0,0,0-1.30957-1.93445,10.00717,10.00717,0,0,1-1.55957-2.396,6.736,6.736,0,0,1-.501-2.90466,6.8292,6.8292,0,0,1,.70166-2.81311,9.2105,9.2105,0,0,1,1.70361-2.19275,9.19449,9.19449,0,0,0,1.60156-1.94153A6.63109,6.63109,0,0,0,217.10415,343.69569Z"></path>
    </g>
    <g opacity=".19">
      <path fill="#aaa" d="M243.95028,374.5302a6.55472,6.55472,0,0,1-.29417,2.91657,10.02158,10.02158,0,0,1-1.49285,2.57658,9.16807,9.16807,0,0,0-1.38086,2.30116,6.47,6.47,0,0,0,.22238,4.89181,9.10543,9.10543,0,0,0,1.54107,2.07665,10.31825,10.31825,0,0,1,1.81274,2.585,7.92456,7.92456,0,0,1-.00267,6.46785,10.46383,10.46383,0,0,1-1.81168,2.58449,9.0865,9.0865,0,0,0-1.53893,2.07651,6.48031,6.48031,0,0,0-.21916,4.89047,9.14788,9.14788,0,0,0,1.38033,2.30089,10.03142,10.03142,0,0,1,1.49177,2.57833,6.557,6.557,0,0,1,.292,2.91724,7.28232,7.28232,0,0,0-.84609-2.66634,10.09948,10.09948,0,0,0-1.75755-2.13A10.15894,10.15894,0,0,1,239.476,408.491a7.51063,7.51063,0,0,1-.77108-3.08818,7.38651,7.38651,0,0,1,.54817-3.18837,10.96583,10.96583,0,0,1,1.70933-2.63258,9.24878,9.24878,0,0,0,1.44033-2.12206,6.37453,6.37453,0,0,0,.00375-4.69891,9.31,9.31,0,0,0-1.43712-2.12286,10.96593,10.96593,0,0,1-1.71147-2.62936,7.40067,7.40067,0,0,1-.55031-3.18758,7.50488,7.50488,0,0,1,.77054-3.08724,10.10982,10.10982,0,0,1,1.86954-2.40618,10.12306,10.12306,0,0,0,1.75756-2.13063A7.26623,7.26623,0,0,0,243.95028,374.5302Z"></path>
    </g>
    <path fill="#4d76b8" d="M429.28,431.99687V528.117h77.75976V431.99687ZM480,472.20707a12.66,12.66,0,0,1-25.32007,0V459.54692H480Z"></path>
    <path fill="#4469a0" d="M429.28,473.948h25.53345a12.70961,12.70961,0,0,1-.13355-1.741V459.54692H480v12.66015a12.7112,12.7112,0,0,1-.13354,1.741h27.17333V431.99687H429.28Z"></path>
    <rect width="357.964" height="228.036" x="289.178" y="231.512" fill="#4d76b8" rx="16"></rect>
    <rect width="326.44" height="197.985" x="304.94" y="246.537" fill="#fff" rx="7"></rect>
    <path fill="#a9c0ff" d="M625.65106,246.53743H310.66884a5.72876,5.72876,0,0,0-5.72873,5.72874v9.59156H631.37979v-9.59156A5.72876,5.72876,0,0,0,625.65106,246.53743Z"></path>
    <rect width="77.76" height="52.92" x="344.502" y="289.816" fill="#92b1ef" rx="2"></rect>
    <rect width="79.2" height="3" x="447.284" y="296.242" fill="#456ba3"></rect>
    <rect width="119.2" height="3" x="447.284" y="315.274" fill="#456ba3"></rect>
    <rect width="99.2" height="3" x="447.284" y="334.306" fill="#456ba3"></rect>
    <rect width="54.72" height="20.16" x="344.502" y="387.722" fill="#92b1ef" rx="2"></rect>
    <rect width="54.72" height="20.16" x="417.942" y="387.722" fill="#92b1ef" rx="2"></rect>
    <rect width="54.72" height="20.16" x="491.764" y="387.722" fill="#92b1ef" rx="2"></rect>
    <path fill="#d9ebff" d="M305.67912,373.76817l18.58171,23.28415a78.532,78.532,0,0,1,27.45532,3.467l-13.4816-10.22506,1.62826-2.14678,13.4816,10.22505a79.08657,79.08657,0,0,1-10.76291-25.4748L315.49631,361.4445Zm23.75933,2.287a4.71726,4.71726,0,0,1,.90671,6.60123,4.70191,4.70191,0,0,1-6.585.90449,4.75945,4.75945,0,0,1-.89083-6.6034A4.688,4.688,0,0,1,329.43845,376.05513Z"></path>
    <path fill="#4d76b8" d="M285.39631 366.44653 300.706 378.05841a2.54176 2.54176 0 0 0 3.55566-.48839l13.64581-17.99773.54268-.70876a2.54269 2.54269 0 0 0-.48843-3.556L302.652 343.69569ZM351.71606 400.51939l-13.48145-10.22513 1.62827-2.1468 13.48138 10.22522a79.08881 79.08881 0 0 1-10.76284-25.475L318.817 362.84476l-5.32211 7.017-5.32253 7.02382 16.08848 20.167a78.52157 78.52157 0 0 1 27.45524 3.4669Zm-28.84677-23.56177a4.69944 4.69944 0 1 1 .89076 6.60317 4.759 4.759 0 0 1-.89076-6.60317Zm0 0"></path>
    <path fill="#92b1ef" d="M302.652,343.69585l-17.25569,22.75081,15.30963,11.61181a2.54231,2.54231,0,0,0,3.556-.48843l13.64583-17.99761.54236-.7088a2.54245,2.54245,0,0,0-.48844-3.556Zm0,0"></path>
    <path fill="#618ac6" d="M690.291,463.24783l-8.133,8.58955a5.74987,5.74987,0,0,1-8.38679-.05532L647.10793,443.4609a2.644,2.644,0,0,1,.01568-3.62534l9.192-9.736a2.64273,2.64273,0,0,1,3.61134-.22288l29.84132,24.97821a5.74826,5.74826,0,0,1,.52275,8.3929Zm0,0"></path>
    <path fill="#92b1ef" d="M690.28341,463.24058l-5.3637,5.66927a5.71452,5.71452,0,0,0-1.433-7.0932l-29.85592-24.97039a2.64064,2.64064,0,0,0-3.6043.20781l-3.47238,3.67907a2.823,2.823,0,0,1,.56934-.905l9.1924-9.72122a2.62682,2.62682,0,0,1,3.60368-.23l29.856,24.97039a5.754,5.754,0,0,1,.508,8.39326Zm0,0"></path>
    <rect width="118.499" height="118.499" x="572.129" y="356.445" fill="none" transform="rotate(-1.596 631.379 415.694)"></rect>
    <path fill="#4469a0" d="M647.931,423.93722l7.86419,6.43062-8.71118,9.37432L640.1,432.1294Zm0,0"></path>
    <path fill="#618ac6" d="M655.99,397.96A42.17137,42.17137,0,1,0,615.01,441.29,42.17326,42.17326,0,0,0,655.99,397.96Zm-41.21,32.39a31.26211,31.26211,0,1,1,30.37-32.12A31.2608,31.2608,0,0,1,614.78,430.35Z"></path>
    <path fill="#92b1ef" d="M600.21508,421.62681a31.07356,31.07356,0,0,0,18.40791,8.37993,31.24634,31.24634,0,1,1-1.72627-61.966,31.23912,31.23912,0,0,0-16.68164,53.58607Zm0,0"></path>
    <g opacity=".28">
      <rect width="187.628" height="122.497" x="581.045" y="190.344" fill="#6299e8" rx="10.026"></rect>
    </g>
    <rect width="187.628" height="122.497" x="599.53" y="174.891" fill="#fff" rx="10.026"></rect>
    <path fill="#4d76b8" d="M777.13184,298.8877H609.55615a11.53966,11.53966,0,0,1-11.52636-11.52637V184.91748a11.53966,11.53966,0,0,1,11.52636-11.52637H777.13184a11.53967,11.53967,0,0,1,11.52636,11.52637V287.36133A11.53967,11.53967,0,0,1,777.13184,298.8877ZM609.55615,176.39111a8.53576,8.53576,0,0,0-8.52636,8.52637V287.36133a8.53576,8.53576,0,0,0,8.52636,8.52637H777.13184a8.53576,8.53576,0,0,0,8.52636-8.52637V184.91748a8.53576,8.53576,0,0,0-8.52636-8.52637Z"></path>
    <rect width="60.75" height="3" x="708.238" y="220.569" fill="#4d76b8"></rect>
    <rect width="60.75" height="3" x="708.238" y="235.509" fill="#4d76b8"></rect>
    <rect width="60.75" height="3" x="708.238" y="250.449" fill="#4d76b8"></rect>
    <rect width="150.75" height="3" x="618.238" y="265.855" fill="#4d76b8"></rect>
    <rect width="150.75" height="3" x="618.238" y="279.535" fill="#4d76b8"></rect>
    <g opacity=".19">
      <rect width="67.704" height="43.9" x="620.643" y="216.838" fill="#aaa" rx="3"></rect>
    </g>
    <rect width="187.628" height="3" x="599.53" y="198.909" fill="#4d76b8"></rect>
    <rect width="67.704" height="43.9" x="625.64" y="212.069" fill="#92b1ef" rx="3"></rect>
    <rect width="777.834" height="9" x="111.083" y="527.286" fill="#456ba3"></rect>
    <g opacity=".28">
      <rect width="125.76" height="171.84" x="199.206" y="121.861" fill="#6299e8" rx="4"></rect>
    </g>
    <rect width="125.76" height="171.84" x="184.461" y="107.116" fill="#fff" rx="4"></rect>
    <rect width="51.36" height="3" x="210.621" y="255.977" fill="#4d76b8"></rect>
    <rect width="81.36" height="3" x="210.621" y="243.376" fill="#4d76b8"></rect>
    <rect width="51.36" height="3" x="210.621" y="227.537" fill="#4d76b8"></rect>
    <rect width="81.36" height="3" x="210.621" y="214.937" fill="#4d76b8"></rect>
    <rect width="81.36" height="3" x="210.621" y="202.336" fill="#4d76b8"></rect>
    <circle cx="247.341" cy="154.156" r="24.48" fill="#a9c0ff"></circle>
    <path fill="#4d76b8" d="M306.22119,280.45654H188.46094a5.50622,5.50622,0,0,1-5.5-5.5V111.11621a5.50622,5.50622,0,0,1,5.5-5.5H306.22119a5.50622,5.50622,0,0,1,5.5,5.5V274.95654A5.50622,5.50622,0,0,1,306.22119,280.45654ZM188.46094,108.61621a2.50294,2.50294,0,0,0-2.5,2.5V274.95654a2.50294,2.50294,0,0,0,2.5,2.5H306.22119a2.50294,2.50294,0,0,0,2.5-2.5V111.11621a2.50294,2.50294,0,0,0-2.5-2.5Z"></path>
    <path fill="#4d76b8" d="M201.34131 250.42627h-6.1001a2.50294 2.50294 0 0 1-2.5-2.5v-6.09961a2.50294 2.50294 0 0 1 2.5-2.5h6.1001a2.50294 2.50294 0 0 1 2.5 2.5v6.09961A2.50294 2.50294 0 0 1 201.34131 250.42627Zm-5.6001-3h5.1001v-5.09961h-5.1001ZM201.34131 209.38623h-6.1001a2.50294 2.50294 0 0 1-2.5-2.5v-6.09961a2.50294 2.50294 0 0 1 2.5-2.5h6.1001a2.50294 2.50294 0 0 1 2.5 2.5v6.09961A2.50294 2.50294 0 0 1 201.34131 209.38623Zm-5.6001-3h5.1001v-5.09961h-5.1001Z"></path>
    <rect width="77.76" height="16.464" x="429.28" y="502.59" fill="#456ba3"></rect>
    <path fill="#4d76b8" d="M525.03993,527.28551h-113.76v-11.464a5,5,0,0,1,5-5h103.76a5,5,0,0,1,5,5Z"></path>
    <circle cx="460.27" cy="154.156" r="42.356" fill="#fff"></circle>
    <path fill="#92b1ef" d="M464.91379,181.97887c0,2.83759-2.41564,4.323-4.80341,4.323s-4.80341-1.48545-4.80341-4.323a.83322.83322,0,0,1,.83329-.83342h7.94023a.83322.83322,0,0,1,.8333.83342Zm0,0"></path>
    <path fill="#4d76b8" d="M468.841,172.25919V178.167a4.50939,4.50939,0,0,1-4.50736,4.50685h-8.44642a4.50939,4.50939,0,0,1-4.50736-4.50685v-5.90781a.95863.95863,0,0,1,.95869-.95869h15.54377a.95862.95862,0,0,1,.95868.95869Zm0,0"></path>
    <path fill="#92b1ef" d="M477.34374 151.20591a17.108 17.108 0 0 1-4.90477 12.04251 10.362 10.362 0 0 0-1.71413 5.23086c0 3.8088-2.43865 4.65666-2.54346 4.68964a.93869.93869 0 0 1-.29911.049H452.59415a.95809.95809 0 0 1-.39588-.0859c-.55629-.25565-2.37026-1.33322-2.37026-4.61972V168.299c0-1.91737 0-2.81215-1.20142-4.23625a17.23871 17.23871 0 1 1 28.71715-12.85688ZM488.15147 151.97439h-7.4049a.95869.95869 0 0 1 0-1.91738h7.4049a.95869.95869 0 0 1 0 1.91738Zm-13.9829-14.899a.959.959 0 0 1-.67747-1.6363l5.33017-5.33017a.95891.95891 0 1 1 1.3561 1.3561l-5.33516 5.32864a.95679.95679 0 0 1-.67364.28173Zm-34.37482 14.899h-7.4049a.95869.95869 0 0 1 0-1.91738h7.4049a.95869.95869 0 0 1 0 1.91738Zm6.578-14.899a.95643.95643 0 0 1-.6776-.28173l-5.33017-5.33017a.95891.95891 0 1 1 1.3561-1.3561l5.33017 5.33018a.95854.95854 0 0 1-.67709 1.63628ZM460.43493 131.33321a.959.959 0 0 1-.95869-.95869v-7.4049a.95869.95869 0 1 1 1.91738 0v7.4049a.95863.95863 0 0 1-.95869.95869Zm0 0"></path>
    <path fill="#d9ebff" d="M473.59847,151.904a.639.639,0,0,1-.63913-.63913,12.65467,12.65467,0,0,0-12.6392-12.6392.63913.63913,0,0,1,0-1.27825,13.9329,13.9329,0,0,1,13.91746,13.91745.63912.63912,0,0,1-.63913.63913Zm0,0"></path>
    <path fill="#4d76b8" d="M460.27,198.0127a43.85645,43.85645,0,1,1,43.85644-43.85645A43.906,43.906,0,0,1,460.27,198.0127Zm0-84.7129a40.85645,40.85645,0,1,0,40.85644,40.85645A40.90273,40.90273,0,0,0,460.27,113.2998Z"></path>
  </g>
</svg>
