<?xml version="1.0" encoding="UTF-8"?>
<svg version="1.1" xmlns="http://www.w3.org/2000/svg" width="1024" height="1024">
<path d="M0 0 C81.51 0 163.02 0 247 0 C245.85095868 19.53370247 245.85095868 19.53370247 245.07617188 27.00463867 C244.98985001 27.86555115 244.90352814 28.72646362 244.81459045 29.61346436 C244.5360976 32.38199455 244.25258338 35.14998144 243.96875 37.91796875 C243.77053681 39.87467401 243.57258455 41.83140572 243.37487793 43.78816223 C242.96356216 47.85159824 242.54987238 51.91478268 242.13427734 55.9777832 C241.60258643 61.17665262 241.07583013 66.37600754 240.55068207 71.5755415 C240.14386765 75.60001703 239.73505461 79.62428748 239.32557678 83.64849281 C239.13053854 85.5665429 238.93598302 87.48464215 238.7419281 89.40279198 C238.4711719 92.07496431 238.19786318 94.74686336 237.92382812 97.41870117 C237.80534264 98.59460564 237.80534264 98.59460564 237.6844635 99.79426575 C237.26104114 103.89400877 236.72877114 107.94028912 236 112 C237.65 112 239.3 112 241 112 C241 112.99 241 113.98 241 115 C241.99 115.33 242.98 115.66 244 116 C243.71422932 118.02167552 243.42108213 120.04230888 243.125 122.0625 C242.88136719 123.75052734 242.88136719 123.75052734 242.6328125 125.47265625 C242.42398437 126.63667969 242.21515625 127.80070313 242 129 C241.80196777 130.14718506 241.60393555 131.29437012 241.39990234 132.47631836 C239.87791652 136.30729522 238.69867995 137.29667157 235.02526855 139.02746582 C234.00729187 139.46246399 234.00729187 139.46246399 232.96875 139.90625 C231.51039021 140.58067197 230.05205783 141.2551532 228.59375 141.9296875 C227.83642578 142.2690332 227.07910156 142.60837891 226.29882812 142.95800781 C222.56540958 144.65025827 218.89756084 146.47419881 215.21875 148.28125 C213.9061577 148.91846993 212.59299199 149.55450987 211.27929688 150.18945312 C204.51867694 153.45786889 197.75950216 156.72927315 191 160 C204.2 160.33 217.4 160.66 231 161 C231 162.32 231 163.64 231 165 C231.99 165 232.98 165 234 165 C234.44766166 171.56570432 233.13698108 177.78511008 231 184 C230.34 184.33 229.68 184.66 229 185 C228.57310842 187.43476661 228.27894691 189.78238882 228.05444336 192.23852539 C227.93937187 193.37526703 227.93937187 193.37526703 227.82197571 194.53497314 C227.56907656 197.05507456 227.32949875 199.5762637 227.08984375 202.09765625 C226.91658275 203.84834553 226.74246335 205.59895006 226.56752014 207.34947205 C226.10761544 211.97345382 225.65882425 216.5984486 225.21246338 221.22375488 C224.67072132 226.81674559 224.11618521 232.40847866 223.56349277 238.00039577 C223.13303094 242.35811831 222.70446343 246.71599915 222.28172302 251.07447815 C222.20304993 251.88219162 222.12437683 252.68990509 222.0433197 253.52209473 C221.89795817 255.01541184 221.75340548 256.50880805 221.6098938 258.00230408 C221.153373 262.680568 220.59954211 267.33844546 220 272 C218.68 272 217.36 272 216 272 C216 272.66 216 273.32 216 274 C134.49 274 52.98 274 -31 274 C-26.3942953 224.4886745 -26.3942953 224.4886745 -24.25 203.8125 C-24.02715188 201.6478062 -23.80449652 199.48309255 -23.58203125 197.31835938 C-23.05686598 192.2120124 -22.52924687 187.10592548 -22 182 C-21.01 182 -20.02 182 -19 182 C-18.95101562 181.29875 -18.90203125 180.5975 -18.8515625 179.875 C-18.77679687 178.92625 -18.70203125 177.9775 -18.625 177 C-18.55539062 176.071875 -18.48578125 175.14375 -18.4140625 174.1875 C-17.08775404 163.97742734 -17.08775404 163.97742734 -14.45074463 161.60787964 C-12.3558276 160.35927885 -10.23912282 159.31925846 -8.01953125 158.30859375 C-7.21448654 157.91479019 -6.40944183 157.52098663 -5.58000183 157.11524963 C-3.00283289 155.86240588 -0.40891544 154.64986882 2.1875 153.4375 C3.88340441 152.62041335 5.57808118 151.80077349 7.27148438 150.97851562 C17.13131291 146.21390653 27.0768008 141.6308263 37 137 C23.8 136.67 10.6 136.34 -3 136 C-3 135.34 -3 134.68 -3 134 C-5.31 134 -7.62 134 -10 134 C-9.56367091 127.11059329 -8.91610155 120.64248536 -7 114 C-9.3431213 114.25561323 -11.67843403 114.59270772 -14 115 C-14.33 115.66 -14.66 116.32 -15 117 C-13.68 117 -12.36 117 -11 117 C-13.36785463 131.17597177 -15.96404086 145.30609973 -18.640625 159.42657471 C-19.00572738 161.35326398 -19.36981967 163.28014493 -19.73291016 165.20721436 C-20.24974651 167.9473523 -20.77071106 170.68667206 -21.29296875 173.42578125 C-21.45012863 174.26129013 -21.60728851 175.09679901 -21.76921082 175.95762634 C-22.88528353 181.77056706 -22.88528353 181.77056706 -24 184 C-39.51 184 -55.02 184 -71 184 C-71 183.34 -71 182.68 -71 182 C-73.31 182 -75.62 182 -78 182 C-75.3292719 166.77591274 -72.57645626 151.56811979 -69.72024536 136.3777771 C-69.40661646 134.70855652 -69.09401548 133.03914248 -68.78244019 131.36953735 C-68.34241451 129.01399554 -67.8983711 126.65924738 -67.453125 124.3046875 C-67.32102127 123.59445938 -67.18891754 122.88423126 -67.05281067 122.15248108 C-66.11455102 117.22910203 -66.11455102 117.22910203 -65 115 C-63.68 115 -62.36 115 -61 115 C-61 114.34 -61 113.68 -61 113 C-45.82 113 -30.64 113 -15 113 C-14.195625 104.2446875 -14.195625 104.2446875 -13.375 95.3125 C-11.64540803 76.63753087 -9.84507078 57.96970199 -8.01386261 39.30447006 C-7.81280615 37.25312363 -7.6123492 35.20171941 -7.41204834 33.15029907 C-7.03321754 29.27187614 -6.65157384 25.39373295 -6.26953125 21.515625 C-6.156129 20.35377182 -6.04272675 19.19191864 -5.92588806 17.99485779 C-5.39583466 12.6415498 -4.82289715 7.31659378 -4 2 C-2.68 2 -1.36 2 0 2 C0 1.34 0 0.68 0 0 Z M92 77 C90.78775109 85.48574236 89.63291984 93.85654767 88.875 102.375 C88.58625 105.55125 88.2975 108.7275 88 112 C96.25 112 104.5 112 113 112 C112.67 113.32 112.34 114.64 112 116 C113.32 116 114.64 116 116 116 C115.75555622 119.03110291 115.41019541 121.99041408 115 125 C114.91492188 126.25876953 114.91492188 126.25876953 114.828125 127.54296875 C114.35433535 130.59891197 113.73955545 132.42102008 112 135 C107.67491252 137.91420099 103.11041435 139.94008045 98.32568359 141.98486328 C94.41401174 143.69226739 90.60708216 145.6100631 86.78125 147.5 C85.23897956 148.25013534 83.69600922 148.99883338 82.15234375 149.74609375 C81.38905762 150.11589355 80.62577148 150.48569336 79.83935547 150.86669922 C78.68137451 151.42768311 78.68137451 151.42768311 77.5 152 C75.88667593 152.7824638 74.27339449 153.5650155 72.66015625 154.34765625 C68.77392544 156.23277886 64.88712928 158.11673077 61 160 C61 160.33 61 160.66 61 161 C74.86 161 88.72 161 103 161 C103 162.32 103 163.64 103 165 C103.99 165 104.98 165 106 165 C105.01 171.27 104.02 177.54 103 184 C95.74 184 88.48 184 81 184 C80.67 188.29 80.34 192.58 80 197 C86.24781527 197.16719986 92.4957512 197.32780097 98.74389648 197.48217773 C100.87122205 197.53568206 102.99850236 197.59101764 105.12573242 197.64819336 C108.1761702 197.72986981 111.22670797 197.80504681 114.27734375 197.87890625 C115.23462875 197.90594131 116.19191376 197.93297638 117.1782074 197.96083069 C118.05904495 197.98092697 118.93988251 198.00102325 119.84741211 198.02172852 C120.62684677 198.04171402 121.40628143 198.06169952 122.20933533 198.08229065 C124.02419919 198.20043421 124.02419919 198.20043421 125 197 C125.23481693 194.81707226 125.41363323 192.62796826 125.5625 190.4375 C125.68818359 188.64119141 125.68818359 188.64119141 125.81640625 186.80859375 C125.87699219 185.88175781 125.93757813 184.95492187 126 184 C122.7 184 119.4 184 116 184 C116 183.34 116 182.68 116 182 C113.69 182 111.38 182 109 182 C109.99 175.73 110.98 169.46 112 163 C114.97 162.01 114.97 162.01 118 161 C120.35594558 159.89631069 122.67341979 158.76876931 124.98828125 157.5859375 C125.64503342 157.25477936 126.30178558 156.92362122 126.97843933 156.58242798 C128.37383747 155.87855777 129.76837647 155.17298211 131.16210938 154.46582031 C134.75593824 152.64279268 138.35630659 150.83279793 141.95703125 149.0234375 C143.00910263 148.49444855 143.00910263 148.49444855 144.08242798 147.95477295 C151.65333667 144.15630556 159.29865259 140.52591809 167 137 C167 136.67 167 136.34 167 136 C153.14 136 139.28 136 125 136 C125 135.34 125 134.68 125 134 C122.69 134 120.38 134 118 134 C118.2165625 132.80761719 118.433125 131.61523438 118.65625 130.38671875 C118.93763596 128.82033692 119.21887849 127.25392932 119.5 125.6875 C119.64308594 124.90181641 119.78617188 124.11613281 119.93359375 123.30664062 C120.06894531 122.54931641 120.20429687 121.79199219 120.34375 121.01171875 C120.46943359 120.31522217 120.59511719 119.61872559 120.72460938 118.90112305 C121.07168026 116.82532567 121.07168026 116.82532567 121 114 C122.32 114 123.64 114 125 114 C125 113.34 125 112.68 125 112 C127.64 112 130.28 112 133 112 C133.50737777 107.66749763 134.00457148 103.33388373 134.5 99 C134.64308594 97.77925781 134.78617188 96.55851562 134.93359375 95.30078125 C135.06894531 94.10839844 135.20429687 92.91601562 135.34375 91.6875 C135.46943359 90.59824219 135.59511719 89.50898438 135.72460938 88.38671875 C136.03232054 84.60252607 136 80.79668282 136 77 C121.48 77 106.96 77 92 77 Z " fill="#3B6BE3" transform="translate(762,400)"/>
<path d="M0 0 C81.51 0 163.02 0 247 0 C248.23475254 2.46950508 247.98096783 3.67298996 247.70417213 6.40755367 C247.6127282 7.33975229 247.52128427 8.27195091 247.42706931 9.23239797 C247.31978298 10.26340913 247.21249665 11.29442028 247.10195923 12.35667419 C246.99326331 13.44657483 246.88456738 14.53647546 246.77257764 15.65940338 C246.40435755 19.3366006 246.0275836 23.01287197 245.65087891 26.68920898 C245.38614052 29.31509577 245.12186913 31.94102569 244.85816956 34.5670166 C244.21362745 40.97448892 243.56270016 47.38129739 242.90961601 53.78790408 C242.14980818 61.2436179 241.39612263 68.69994668 240.6426665 76.15630461 C239.29828806 89.4583029 237.9480848 102.75970362 236.59472656 116.06079102 C235.28059848 128.97634781 233.9709032 141.8923442 232.66601562 154.80883789 C231.01976155 171.10426936 229.36956067 187.39929637 227.71610797 203.69399897 C227.18849613 208.89476423 226.66230439 214.09567207 226.13658524 219.29662895 C225.49598641 225.633323 224.8528281 231.96975131 224.20643021 238.30585652 C223.87649874 241.54042198 223.54803439 244.77512435 223.22179985 248.01006508 C222.86838755 251.51249064 222.51076226 255.01446035 222.15200806 258.51634216 C222.04918317 259.54512259 221.94635829 260.57390303 221.8404175 261.63385862 C221.74375808 262.56866499 221.64709865 263.50347135 221.54751015 264.46660519 C221.4653282 265.27546451 221.38314626 266.08432382 221.29847395 266.91769403 C221 269 221 269 220 272 C218.68 272 217.36 272 216 272 C216 272.66 216 273.32 216 274 C183.33 274 150.66 274 117 274 C119.22222222 249.55555556 119.22222222 249.55555556 120.6328125 238.53125 C120.96672232 235.32003216 121.06967382 232.22490245 121 229 C120.38125 229.58116577 120.38125 229.58116577 119.75 230.17407227 C105.76550169 243.29819617 105.76550169 243.29819617 99.87890625 248.37109375 C94.95238403 252.64211197 90.14613289 257.05379797 85.31640625 261.43359375 C84.44886719 262.21863281 83.58132812 263.00367188 82.6875 263.8125 C81.90761719 264.52019531 81.12773438 265.22789062 80.32421875 265.95703125 C70.8827683 274.25598686 70.8827683 274.25598686 64.72259521 274.24050903 C63.87568115 274.24325836 63.02876709 274.24600769 62.15618896 274.24884033 C61.23549622 274.24164978 60.31480347 274.23445923 59.36621094 274.22705078 C58.39026978 274.22734283 57.41432861 274.22763489 56.40881348 274.22793579 C53.18391012 274.22654277 49.95923798 274.2109827 46.734375 274.1953125 C44.4980685 274.19158228 42.26176037 274.18873535 40.02545166 274.18673706 C34.13996874 274.17910137 28.25458454 274.15945333 22.36914062 274.1373291 C16.36329484 274.11686936 10.35743309 274.10773506 4.3515625 274.09765625 C-7.43233636 274.07620746 -19.21615643 274.04135671 -31 274 C-28.19157437 243.33432762 -25.22521841 212.68581077 -22.18491578 182.04232311 C-21.70459079 177.1994602 -21.22509754 172.35651507 -20.74559134 167.51357102 C-19.61613022 156.10626397 -18.48539243 144.69908401 -17.35375977 133.29199219 C-16.18977604 121.55859472 -15.0278694 109.82499285 -13.86695653 98.09129119 C-12.86245455 87.93912143 -11.85677733 77.78706857 -10.85013217 67.63511109 C-10.25203154 61.60323781 -9.65435218 55.5713236 -9.05777931 49.53929901 C-8.50013618 43.90148333 -7.94102151 38.2638155 -7.38076591 32.62625885 C-7.17585866 30.56191667 -6.97146719 28.49752322 -6.76763153 26.43307495 C-6.4893391 23.61537778 -6.20917589 20.79787262 -5.92854309 17.98040771 C-5.84858355 17.16633823 -5.76862401 16.35226875 -5.68624145 15.51353049 C-5.2332167 10.9883775 -4.67637449 6.49735508 -4 2 C-2.68 2 -1.36 2 0 2 C0 1.34 0 0.68 0 0 Z M92 77 C90.82247954 85.24264323 89.67064664 93.40239649 88.85498047 101.67382812 C88.75715271 102.6415918 88.65932495 103.60935547 88.55853271 104.60644531 C88.24179913 107.74775854 87.92932262 110.88947679 87.6171875 114.03125 C87.39601664 116.23890895 87.17466955 118.44655026 86.95315552 120.6541748 C86.49239532 125.25298358 86.03375857 129.85199773 85.57666016 134.45117188 C84.99117734 140.34034398 84.40031765 146.22896224 83.80788994 152.11743927 C83.35106901 156.66396861 82.8970778 161.2107771 82.44394302 165.75767517 C82.22712472 167.92985246 82.00942828 170.10194229 81.7908287 172.27394104 C81.48641835 175.30279172 81.18582403 178.33199772 80.88623047 181.36132812 C80.75068253 182.69858948 80.75068253 182.69858948 80.61239624 184.06286621 C80.53114502 184.89229736 80.4498938 185.72172852 80.36618042 186.57629395 C80.29503462 187.29001411 80.22388882 188.00373428 80.15058708 188.73908234 C79.96755763 191.48709049 80 194.24590331 80 197 C94.85 197.33 109.7 197.66 125 198 C126.19802926 189.61379516 127.35313868 181.32798667 128.14501953 172.91137695 C128.24284729 171.89978012 128.34067505 170.88818329 128.44146729 169.84593201 C128.75839032 166.56034153 129.07071042 163.27433287 129.3828125 159.98828125 C129.60391393 157.68374848 129.82526212 155.37923938 130.04684448 153.07475281 C130.5076744 148.27504023 130.96636339 143.4751298 131.42333984 138.67504883 C132.00968893 132.51664324 132.60018933 126.35864459 133.19211006 120.20077229 C133.64795181 115.45610248 134.10227146 110.71128799 134.55605698 105.96642113 C134.77343426 103.69413356 134.99113765 101.42187716 135.2091713 99.14965248 C135.51216019 95.98833289 135.81325419 92.82683876 136.11376953 89.6652832 C136.20413483 88.72558685 136.29450012 87.7858905 136.38760376 86.81771851 C136.46885498 85.95875473 136.5501062 85.09979095 136.63381958 84.21479797 C136.74053828 83.09582359 136.74053828 83.09582359 136.84941292 81.95424366 C136.97634754 80.30694975 137 78.65217724 137 77 C122.15 77 107.3 77 92 77 Z " fill="#3B6BE3" transform="translate(41,400)"/>
<path d="M0 0 C33.01173059 -0.1654532 65.99592115 0.30282358 99 1 C98.30440473 14.60172166 96.97171127 28.12210974 95.60742188 41.67041016 C95.36234602 44.12603315 95.11752587 46.58168167 94.87294006 49.03735352 C94.28077844 54.97573246 93.68588311 60.91383153 93.08964264 66.85180183 C92.3944276 73.77653086 91.70227146 80.70156467 91.01018876 87.62660734 C89.77538766 99.98097569 88.53766104 112.33504919 87.29833984 124.68896484 C86.09702983 136.66398429 84.89809735 148.63923881 83.70166016 160.61474609 C82.39574935 173.68597254 81.08860359 186.75707432 79.77924204 199.8279556 C79.63965741 201.22138744 79.50007303 202.6148193 79.36048889 204.00825119 C79.25748831 205.03644643 79.25748831 205.03644643 79.1524069 206.08541328 C78.66929631 210.90877045 78.18702956 215.73221155 77.70506287 220.55568314 C77.05691232 227.04187768 76.40660327 233.52785341 75.75485039 240.01368713 C75.51592287 242.39447118 75.27766849 244.7753229 75.04013252 247.15624619 C74.71612659 250.40274171 74.38968856 253.64898371 74.06262207 256.89517212 C73.96894332 257.83951823 73.87526458 258.78386434 73.77874708 259.756827 C73.32803891 264.20447752 72.80568319 268.59898519 72 273 C70.68 273 69.36 273 68 273 C68 273.66 68 274.32 68 275 C-13.51 275 -95.02 275 -179 275 C-177.8512918 256.62066877 -177.8512918 256.62066877 -176.93737793 247.67002869 C-176.83514026 246.64449231 -176.73290259 245.61895594 -176.62756681 244.5623427 C-176.29034997 241.18702323 -175.94890948 237.8121457 -175.60742188 234.43725586 C-175.36234154 231.99310804 -175.11752152 229.54893412 -174.87294006 227.10473633 C-174.28078862 221.19409448 -173.68588103 215.28373404 -173.08964264 209.37350344 C-172.39433186 202.48002111 -171.70220841 195.58621984 -171.01018876 188.69240648 C-169.77537298 176.39242649 -168.5376759 164.09273817 -167.29833984 151.79321289 C-166.09727797 139.87350833 -164.89831665 127.95359492 -163.70166016 116.03344727 C-163.62781339 115.29784676 -163.55396663 114.56224626 -163.47788209 113.80435484 C-163.40415936 113.06998819 -163.33043663 112.33562155 -163.25447989 111.57900137 C-161.88871762 97.97453516 -160.52102036 84.3702641 -159.1524069 70.76608444 C-158.6695217 65.96571717 -158.18720358 61.1652931 -157.70506287 56.364851 C-157.05645638 49.90742588 -156.40619878 43.45016824 -155.75485039 36.9930191 C-155.51610251 34.62392523 -155.27785129 32.25478124 -155.04013252 29.88558388 C-154.71565701 26.65262317 -154.38937252 23.41984999 -154.06262207 20.18711853 C-153.96894332 19.24957621 -153.87526458 18.31203389 -153.77874708 17.3460812 C-153.29126728 12.54378712 -152.7227275 7.77272963 -152 3 C-150.68 3 -149.36 3 -148 3 C-148 2.34 -148 1.68 -148 1 C-115.33 1 -82.66 1 -49 1 C-50.12504849 19.00077579 -50.12504849 19.00077579 -50.796875 25.66145325 C-50.9073542 26.76909288 -50.9073542 26.76909288 -51.02006531 27.89910907 C-51.26052492 30.30258343 -51.5052144 32.7056053 -51.75 35.10864258 C-51.92611262 36.85978221 -52.10196756 38.61094777 -52.27758789 40.36213684 C-52.74993774 45.06401089 -53.22609352 49.76549186 -53.70318604 54.46688676 C-54.10209483 58.40155049 -54.49905293 62.33641003 -54.89601135 66.27127093 C-55.83159523 75.54513791 -56.77023641 84.8186918 -57.7109375 94.09204102 C-58.68112722 103.65652925 -59.64656266 113.22148889 -60.6096344 122.78669626 C-61.43856753 131.01825087 -62.27017057 139.24953263 -63.10398865 147.48059386 C-63.60122971 152.38924259 -64.09750627 157.29798379 -64.59130859 162.20697975 C-65.05443006 166.80960889 -65.52088842 171.41188766 -65.98995972 176.01391411 C-66.16167636 177.7041182 -66.33221162 179.39444278 -66.50149536 181.08489227 C-66.73219229 183.38670937 -66.96710705 185.68805743 -67.203125 187.98933411 C-67.33364258 189.27842084 -67.46416016 190.56750757 -67.59863281 191.89565754 C-68 195 -68 195 -69 198 C-54.15 198 -39.3 198 -24 198 C-23.49855469 192.5034375 -22.99710938 187.006875 -22.48046875 181.34375 C-19.51838154 149.30126367 -16.28835012 117.28449963 -13.08770359 85.26516342 C-12.39001981 78.2825242 -11.69608364 71.29951584 -11.00284225 64.31643438 C-10.32664718 57.50683889 -9.6478082 50.69751031 -8.96690148 43.88838434 C-8.56343411 39.85317417 -8.16104901 35.81786341 -7.76140785 31.78227234 C-7.38929902 28.02551425 -7.01391636 24.26909792 -6.63595581 20.51292419 C-6.49809097 19.13714505 -6.36141455 17.76124623 -6.22600365 16.38522339 C-6.04146443 14.51182835 -5.85225748 12.63889485 -5.66279602 10.76599121 C-5.55829793 9.71845421 -5.45379984 8.67091721 -5.34613514 7.59163666 C-5 5 -5 5 -4 2 C-2.68 2 -1.36 2 0 2 C0 1.34 0 0.68 0 0 Z " fill="#3B6BE3" transform="translate(462,400)"/>
<path d="M0 0 C32.67 0 65.34 0 99 0 C99 6.9785812 98.90119298 13.51864174 98.125 20.38671875 C98.04636719 21.12265259 97.96773437 21.85858643 97.88671875 22.61682129 C97.59750733 25.30773885 97.29820425 27.99756417 97 30.6875 C96.34 36.730625 95.68 42.77375 95 49 C111.5 49 128 49 145 49 C144.38163616 59.51218526 143.70570235 69.89600199 142.58984375 80.34765625 C142.45808243 81.61097275 142.32632111 82.87428925 142.19056702 84.17588806 C141.8464382 87.46885342 141.49905929 90.76145233 141.14996338 94.05389404 C140.79180032 97.4399291 140.43810505 100.82643085 140.08398438 104.21289062 C139.39334428 110.80902113 138.69840212 117.40468707 138 124 C136.68 124 135.36 124 134 124 C134 124.66 134 125.32 134 126 C118.49 126 102.98 126 87 126 C86.38587877 133.44791894 86.38587877 133.44791894 85.77368164 140.89599609 C85.24519262 147.27140198 84.65525463 153.63635595 84 160 C88.29 160.33 92.58 160.66 97 161 C97 162.32 97 163.64 97 165 C97.99 165 98.98 165 100 165 C99.46471331 173.35584158 98.33929845 181.44354565 96.75 189.66015625 C96.53182617 190.81245224 96.31365234 191.96474823 96.08886719 193.15196228 C95.63112951 195.56336273 95.17048368 197.97421284 94.70703125 200.38452148 C93.99613255 204.0826185 93.2941966 207.7823323 92.59375 211.48242188 C92.14634823 213.83343138 91.69844952 216.18434638 91.25 218.53515625 C91.03956055 219.64133804 90.82912109 220.74751984 90.61230469 221.88722229 C90.41540039 222.90936325 90.21849609 223.93150421 90.015625 224.98461914 C89.75700684 226.33264366 89.75700684 226.33264366 89.49316406 227.707901 C89 230 89 230 88 233 C84.04 233 80.08 233 76 233 C75.67 237.62 75.34 242.24 75 247 C91.17 247 107.34 247 124 247 C123.41441068 257.54060782 122.82433614 268.00237393 121.84375 278.5 C121.7365564 279.66837402 121.62936279 280.83674805 121.5189209 282.04052734 C121.2953405 284.46694849 121.07012024 286.89321909 120.84326172 289.31933594 C120.49549145 293.04834341 120.1556991 296.77802514 119.81640625 300.5078125 C119.59682768 302.88025221 119.37679304 305.25264976 119.15625 307.625 C119.05517944 308.73939453 118.95410889 309.85378906 118.84997559 311.00195312 C118.75317505 312.02482422 118.65637451 313.04769531 118.55664062 314.1015625 C118.43125916 315.45241943 118.43125916 315.45241943 118.30334473 316.83056641 C118 319 118 319 117 321 C115.68 321 114.36 321 113 321 C113 321.66 113 322.32 113 323 C63.83 323 14.66 323 -36 323 C-31.33764219 272.87965357 -31.33764219 272.87965357 -29.48925781 254.68310547 C-29.23460508 252.16923811 -28.98417963 249.65497806 -28.734375 247.140625 C-28.6594281 246.41482239 -28.5844812 245.68901978 -28.50726318 244.94122314 C-28.07909191 240.59698581 -27.93313459 236.35763269 -28 232 C-30.31 231.67 -32.62 231.34 -35 231 C-25.18279532 176.07870444 -25.18279532 176.07870444 -21 155 C-22.32 154.67 -23.64 154.34 -25 154 C-25 153.34 -25 152.68 -25 152 C-27.31 152 -29.62 152 -32 152 C-31.63097689 149.05681569 -31.23130991 146.12364859 -30.8125 143.1875 C-30.71130859 142.35412109 -30.61011719 141.52074219 -30.50585938 140.66210938 C-29.60105121 134.57299496 -29.60105121 134.57299496 -26.82421875 131.92578125 C-23.44199368 130.81708507 -20.53959778 130.93837621 -17 131 C-16.92072266 130.0912915 -16.84144531 129.18258301 -16.75976562 128.24633789 C-14.37806818 101.07538307 -11.75463941 73.92832996 -9.08584595 46.78434372 C-8.81204873 43.99540331 -8.53941359 41.20635148 -8.26708984 38.41726685 C-7.83265964 33.96985443 -7.39507999 29.52276272 -6.95506859 25.07589912 C-6.79085404 23.41188873 -6.6276331 21.74777994 -6.46544838 20.08357048 C-6.2412718 17.78589217 -6.01333529 15.48861698 -5.78442383 13.19140625 C-5.65659012 11.89404541 -5.52875641 10.59668457 -5.39704895 9.26000977 C-5.08997242 6.73872748 -4.70700725 4.43083231 -4 2 C-2.68 2 -1.36 2 0 2 C0 1.34 0 0.68 0 0 Z M32 163 C30.85338476 168.72773958 29.71428604 174.45690433 28.58203125 180.1875 C28.19605824 182.13549802 27.80805881 184.08309569 27.41796875 186.03027344 C26.85660072 188.83424945 26.30261151 191.63959932 25.75 194.4453125 C25.57500977 195.31116974 25.40001953 196.17702698 25.21972656 197.06912231 C25.05956055 197.88951996 24.89939453 198.7099176 24.734375 199.55517578 C24.59225586 200.27021271 24.45013672 200.98524963 24.30371094 201.72195435 C23.93881343 204.45894232 24 207.23879495 24 210 C28.62 210 33.24 210 38 210 C39.65 201.75 41.3 193.5 43 185 C41.68 185 40.36 185 39 185 C39 184.34 39 183.68 39 183 C36.69 183 34.38 183 32 183 C32.2165625 181.89140625 32.433125 180.7828125 32.65625 179.640625 C32.93769318 178.17712047 33.2189325 176.71357673 33.5 175.25 C33.64308594 174.52039063 33.78617188 173.79078125 33.93359375 173.0390625 C34.58888879 169.60656468 35 166.50830509 35 163 C34.01 163 33.02 163 32 163 Z " fill="#3C6CE3" transform="translate(592,351)"/>
<path d="M0 0 C-0.30987617 2.25036286 -0.62299818 4.50027894 -0.9375 6.75 C-1.19853516 8.62945313 -1.19853516 8.62945313 -1.46484375 10.546875 C-2 14 -2 14 -3 18 C34.95 18 72.9 18 112 18 C112.33 14.7 112.66 11.4 113 8 C114.0625 4.875 114.0625 4.875 115 3 C115.99 3 116.98 3 118 3 C118.45852142 9.72498087 116.7496073 15.51187291 115 22 C107.74 22 100.48 22 93 22 C92.67 26.29 92.34 30.58 92 35 C106.52 35 121.04 35 136 35 C136.66 30.71 137.32 26.42 138 22 C134.7 22 131.4 22 128 22 C128 21.34 128 20.68 128 20 C125.69 20 123.38 20 121 20 C121.45759953 13.4491015 122.2100144 7.3246158 124 1 C125.32 0.67 126.64 0.34 128 0 C127.69012383 2.25036286 127.37700182 4.50027894 127.0625 6.75 C126.88847656 8.00296875 126.71445312 9.2559375 126.53515625 10.546875 C126 14 126 14 125 18 C162.95 18 200.9 18 240 18 C240.33 14.7 240.66 11.4 241 8 C242.0625 4.875 242.0625 4.875 243 3 C243.99 3 244.98 3 246 3 C246.44766166 9.56570432 245.13698108 15.78511008 243 22 C242.34 22.33 241.68 22.66 241 23 C240.57310842 25.43476661 240.27894691 27.78238882 240.05444336 30.23852539 C239.93937187 31.37526703 239.93937187 31.37526703 239.82197571 32.53497314 C239.56907656 35.05507456 239.32949875 37.5762637 239.08984375 40.09765625 C238.91658275 41.84834553 238.74246335 43.59895006 238.56752014 45.34947205 C238.10761544 49.97345382 237.65882425 54.5984486 237.21246338 59.22375488 C236.67072132 64.81674559 236.11618521 70.40847866 235.56349277 76.00039577 C235.13303094 80.35811831 234.70446343 84.71599915 234.28172302 89.07447815 C234.16371338 90.28604836 234.16371338 90.28604836 234.0433197 91.52209473 C233.89795817 93.01541184 233.75340548 94.50880805 233.6098938 96.00230408 C233.153373 100.680568 232.59954211 105.33844546 232 110 C230.68 110 229.36 110 228 110 C228 110.66 228 111.32 228 112 C146.49 112 64.98 112 -19 112 C-14.3942953 62.4886745 -14.3942953 62.4886745 -12.25 41.8125 C-12.02715188 39.6478062 -11.80449652 37.48309255 -11.58203125 35.31835938 C-11.05686598 30.2120124 -10.52924687 25.10592548 -10 20 C-9.01 20 -8.02 20 -7 20 C-6.95101562 19.29875 -6.90203125 18.5975 -6.8515625 17.875 C-6.39229661 12.04707422 -5.75892406 6.58717056 -4 1 C-2 0 -2 0 0 0 Z " fill="#3B6BE3" transform="translate(750,562)"/>
<path d="M0 0 C0.99 0 1.98 0 3 0 C3.25881098 5.95265252 2.27604787 11.17803161 1 17 C4.63 17 8.26 17 12 17 C10.59782523 30.31883614 8.13811697 43.36570192 5.5625 56.5 C4.96383502 59.58016904 4.36665809 62.66062427 3.76951599 65.74108887 C3.40118932 67.63822352 3.03173279 69.53513942 2.66078186 71.4317627 C1.06237737 79.61356003 -0.46350036 87.80533524 -2 96 C35.95 96 73.9 96 113 96 C113.33 92.37 113.66 88.74 114 85 C114.54058228 81.5246397 115.11002023 78.07495871 115.7421875 74.6171875 C115.91122589 73.67747101 116.08026428 72.73775452 116.25442505 71.76956177 C116.61005856 69.80117495 116.96814649 67.8332301 117.32861328 65.86572266 C117.87467352 62.87678704 118.40845425 59.88582854 118.94140625 56.89453125 C119.29092658 54.96861554 119.64116277 53.04282958 119.9921875 51.1171875 C120.22674149 49.79495682 120.22674149 49.79495682 120.46603394 48.4460144 C121.51851095 42.77281093 123.03094078 37.42330068 125 32 C125.99 32 126.98 32 128 32 C127.46471331 40.35584158 126.33929845 48.44354565 124.75 56.66015625 C124.42273926 58.38860023 124.42273926 58.38860023 124.08886719 60.15196228 C123.63112951 62.56336273 123.17048368 64.97421284 122.70703125 67.38452148 C121.99613255 71.0826185 121.2941966 74.7823323 120.59375 78.48242188 C120.14634823 80.83343138 119.69844952 83.18434638 119.25 85.53515625 C119.03956055 86.64133804 118.82912109 87.74751984 118.61230469 88.88722229 C118.41540039 89.90936325 118.21849609 90.93150421 118.015625 91.98461914 C117.75700684 93.33264366 117.75700684 93.33264366 117.49316406 94.707901 C117 97 117 97 116 100 C112.04 100 108.08 100 104 100 C103.67 104.62 103.34 109.24 103 114 C119.17 114 135.34 114 152 114 C151.41441068 124.54060782 150.82433614 135.00237393 149.84375 145.5 C149.7365564 146.66837402 149.62936279 147.83674805 149.5189209 149.04052734 C149.2953405 151.46694849 149.07012024 153.89321909 148.84326172 156.31933594 C148.49549145 160.04834341 148.1556991 163.77802514 147.81640625 167.5078125 C147.59682768 169.88025221 147.37679304 172.25264976 147.15625 174.625 C147.05517944 175.73939453 146.95410889 176.85378906 146.84997559 178.00195312 C146.75317505 179.02482422 146.65637451 180.04769531 146.55664062 181.1015625 C146.43125916 182.45241943 146.43125916 182.45241943 146.30334473 183.83056641 C146 186 146 186 145 188 C143.68 188 142.36 188 141 188 C141 188.66 141 189.32 141 190 C91.83 190 42.66 190 -8 190 C-3.33764219 139.87965357 -3.33764219 139.87965357 -1.48925781 121.68310547 C-1.23460508 119.16923811 -0.98417963 116.65497806 -0.734375 114.140625 C-0.6594281 113.41482239 -0.5844812 112.68901978 -0.50726318 111.94122314 C-0.07909191 107.59698581 0.06686541 103.35763269 0 99 C-2.31 98.67 -4.62 98.34 -7 98 C2.81720468 43.07870444 2.81720468 43.07870444 7 22 C5.68 21.67 4.36 21.34 3 21 C3 20.34 3 19.68 3 19 C0.69 19 -1.62 19 -4 19 C-3.52570278 16.01998162 -3.04581304 13.04105713 -2.5625 10.0625 C-2.42779297 9.21236328 -2.29308594 8.36222656 -2.15429688 7.48632812 C-2.02216797 6.67744141 -1.89003906 5.86855469 -1.75390625 5.03515625 C-1.63345947 4.2862915 -1.5130127 3.53742676 -1.38891602 2.76586914 C-1 1 -1 1 0 0 Z " fill="#3B6BE3" transform="translate(564,484)"/>
<path d="M0 0 C1.54221474 0.02997826 1.54221474 0.02997826 3.11558533 0.06056213 C4.27671341 0.08065842 5.43784149 0.1007547 6.63415527 0.12145996 C8.52943214 0.16201256 8.52943214 0.16201256 10.46299744 0.2033844 C12.39193092 0.23880089 12.39193092 0.23880089 14.35983276 0.27493286 C17.78435361 0.3378667 21.20872554 0.4069067 24.63310242 0.47718811 C28.12515969 0.54778785 31.61732284 0.61265476 35.10948181 0.67799377 C41.9657167 0.80712584 48.8218114 0.9427043 55.67784119 1.08229065 C54.44822468 9.42604569 53.04428783 17.70899489 51.40049744 25.98072815 C51.1884819 27.05875702 50.97646637 28.13678589 50.75802612 29.2474823 C50.08797111 32.65125157 49.41420822 36.05427426 48.74034119 39.45729065 C48.29283419 41.72807643 47.84556688 43.99890946 47.39854431 46.26979065 C45.1772995 57.54441676 42.94147968 68.81609603 40.67784119 80.08229065 C41.26500916 79.92002991 41.85217712 79.75776917 42.45713806 79.59059143 C45.70637511 78.84686765 48.85017772 78.95074013 52.17784119 78.95729065 C53.48752869 78.95471252 54.79721619 78.9521344 56.14659119 78.94947815 C58.90020043 79.0530431 61.08136965 79.24771051 63.67784119 80.08229065 C63.77580994 79.18510315 63.87377869 78.28791565 63.97471619 77.36354065 C65.13334436 67.69498831 67.13478242 58.47679414 69.67784119 49.08229065 C66.04784119 49.08229065 62.41784119 49.08229065 58.67784119 49.08229065 C58.81923599 46.83200736 58.96612122 44.58206859 59.11534119 42.33229065 C59.23715759 40.45283752 59.23715759 40.45283752 59.36143494 38.53541565 C59.60503873 35.8768261 59.99131551 33.6329412 60.67784119 31.08229065 C66.04478835 30.93679879 71.41180957 30.79456083 76.77891541 30.65504456 C78.59599505 30.6073866 80.41305356 30.55891446 82.23008728 30.50953674 C94.38271432 30.17999677 106.52074038 30.01540151 118.67784119 30.08229065 C118.064023 36.24077984 117.16092716 42.23326529 115.93565369 48.2971344 C115.7666153 49.15174759 115.5975769 50.00636078 115.42341614 50.88687134 C114.88675924 53.5985609 114.34528788 56.30925382 113.80284119 59.01979065 C113.26787954 61.69825635 112.73416728 64.37694734 112.20368958 67.05630493 C111.87573746 68.71230371 111.54540889 70.36783514 111.21180725 72.02270508 C109.49463767 80.68397781 108.13208642 89.35681924 106.67784119 98.08229065 C68.72784119 98.08229065 30.77784119 98.08229065 -8.32215881 98.08229065 C-7.11518814 88.42652529 -5.89234524 79.03475181 -4.00965881 69.5315094 C-3.688078 67.87330925 -3.688078 67.87330925 -3.36000061 66.18161011 C-2.68570166 62.71001067 -2.00419447 59.23987748 -1.32215881 55.76979065 C-0.64178485 52.28154334 0.03709336 48.79300766 0.71568298 45.30441284 C1.13502723 43.15146191 1.55566868 40.99876305 1.97789001 38.84637451 C3.26622043 32.26763962 4.49133838 25.68018083 5.67784119 19.08229065 C2.04784119 19.08229065 -1.58215881 19.08229065 -5.32215881 19.08229065 C-3.47892196 0.12328302 -3.47892196 0.12328302 0 0 Z " fill="#FDFDFD" transform="translate(570.3221588134766,481.91770935058594)"/>
<path d="M0 0 C38.28 0 76.56 0 116 0 C116 0.99 116 1.98 116 3 C116.99 3.33 117.98 3.66 119 4 C118.71422932 6.02167552 118.42108213 8.04230888 118.125 10.0625 C117.88136719 11.75052734 117.88136719 11.75052734 117.6328125 13.47265625 C117.42398438 14.63667969 117.21515625 15.80070313 117 17 C116.70295166 18.72077759 116.70295166 18.72077759 116.39990234 20.47631836 C114.87791652 24.30729522 113.69867995 25.29667157 110.02526855 27.02746582 C109.34661743 27.3174646 108.66796631 27.60746338 107.96875 27.90625 C106.51039021 28.58067197 105.05205783 29.2551532 103.59375 29.9296875 C102.83642578 30.2690332 102.07910156 30.60837891 101.29882812 30.95800781 C97.56540958 32.65025827 93.89756084 34.47419881 90.21875 36.28125 C88.9061577 36.91846993 87.59299199 37.55450987 86.27929688 38.18945312 C79.51867694 41.45786889 72.75950216 44.72927315 66 48 C85.8 48.495 85.8 48.495 106 49 C105 58 105 58 103 68 C65.05 68 27.1 68 -12 68 C-11.67 65.36 -11.34 62.72 -11 60 C-11.01119873 59.04963867 -11.02239746 58.09927734 -11.03393555 57.12011719 C-10.92749621 53.88706059 -10.50463536 51.88782032 -9 49 C-4.01082251 45.21440375 1.49112154 42.79165364 7.1875 40.25 C8.69121479 39.54410521 10.19319117 38.83449473 11.69335938 38.12109375 C14.52155842 36.78450013 17.3574179 35.46931878 20.20776367 34.18066406 C26.82726428 31.16851981 33.40968686 28.07547947 40 25 C20.2 24.505 20.2 24.505 0 24 C0 23.34 0 22.68 0 22 C-2.31 22 -4.62 22 -7 22 C-6.56367091 15.11059329 -5.91610155 8.64248536 -4 2 C-2.68 2 -1.36 2 0 2 C0 1.34 0 0.68 0 0 Z " fill="#FDFDFD" transform="translate(887,512)"/>
<path d="M0 0 C0 0.99 0 1.98 0 3 C0.99 3.33 1.98 3.66 3 4 C2.71422932 6.02167552 2.42108213 8.04230888 2.125 10.0625 C1.88136719 11.75052734 1.88136719 11.75052734 1.6328125 13.47265625 C1.42398438 14.63667969 1.21515625 15.80070313 1 17 C0.70295166 18.72077759 0.70295166 18.72077759 0.39990234 20.47631836 C-1.12208348 24.30729522 -2.30132005 25.29667157 -5.97473145 27.02746582 C-6.65338257 27.3174646 -7.33203369 27.60746338 -8.03125 27.90625 C-9.48960979 28.58067197 -10.94794217 29.2551532 -12.40625 29.9296875 C-13.16357422 30.2690332 -13.92089844 30.60837891 -14.70117188 30.95800781 C-18.43459042 32.65025827 -22.10243916 34.47419881 -25.78125 36.28125 C-27.0938423 36.91846993 -28.40700801 37.55450987 -29.72070312 38.18945312 C-36.48132306 41.45786889 -43.24049784 44.72927315 -50 48 C-30.2 48.495 -30.2 48.495 -10 49 C-11 58 -11 58 -13 68 C-50.95 68 -88.9 68 -128 68 C-127.67 65.36 -127.34 62.72 -127 60 C-127.00467285 59.04673828 -127.0093457 58.09347656 -127.01416016 57.11132812 C-126.88999689 53.91094425 -126.46329122 51.87050173 -125 49 C-120.20562916 45.28843299 -114.88773281 42.96010389 -109.375 40.5 C-107.82963614 39.77501802 -106.28593836 39.04647442 -104.74389648 38.31445312 C-100.90118982 36.50157212 -97.03881207 34.73624993 -93.1675415 32.98535156 C-89.93643004 31.51650738 -86.72486832 30.00773899 -83.51171875 28.5 C-68.54430228 21.51476743 -68.54430228 21.51476743 -64 20 C-81.82 19.67 -99.64 19.34 -118 19 C-118 10 -118 10 -117 5.5 C-116.814375 4.6440625 -116.62875 3.788125 -116.4375 2.90625 C-116.2209375 1.96265625 -116.2209375 1.96265625 -116 1 C-105.15748388 0.86754761 -94.314946 0.73704948 -83.47237873 0.60884857 C-78.43429245 0.54922179 -73.39621505 0.48899467 -68.3581543 0.42724609 C-45.57112571 0.14840202 -22.78906188 -0.09306114 0 0 Z " fill="#FDFDFD" transform="translate(875,512)"/>
<path d="M0 0 C15.51 0 31.02 0 47 0 C46.67 1.32 46.34 2.64 46 4 C47.32 4 48.64 4 50 4 C47.63214537 18.17597177 45.03595914 32.30609973 42.359375 46.42657471 C41.99427262 48.35326398 41.63018033 50.28014493 41.26708984 52.20721436 C40.75025349 54.9473523 40.22928894 57.68667206 39.70703125 60.42578125 C39.54987137 61.26129013 39.39271149 62.09679901 39.23078918 62.95762634 C38.11471647 68.77056706 38.11471647 68.77056706 37 71 C21.49 71 5.98 71 -10 71 C-10 70.34 -10 69.68 -10 69 C-12.31 69 -14.62 69 -17 69 C-14.3292719 53.77591274 -11.57645626 38.56811979 -8.72024536 23.3777771 C-8.40661646 21.70855652 -8.09401548 20.03914248 -7.78244019 18.36953735 C-7.34241451 16.01399554 -6.8983711 13.65924738 -6.453125 11.3046875 C-6.32102127 10.59445938 -6.18891754 9.88423126 -6.05281067 9.15248108 C-5.11455102 4.22910203 -5.11455102 4.22910203 -4 2 C-2.68 2 -1.36 2 0 2 C0 1.34 0 0.68 0 0 Z " fill="#FDFDFD" transform="translate(701,513)"/>
<path d="M0 0 C1.32 0 2.64 0 4 0 C4.12726066 6.96076294 3.76741027 13.75529068 3.05763245 20.67764282 C2.90555758 22.21944987 2.90555758 22.21944987 2.7504105 23.79240453 C2.41193167 27.21185802 2.06644568 30.6305656 1.72094727 34.04931641 C1.47584679 36.51064438 1.23117822 38.9720154 0.98690796 41.4334259 C0.39270962 47.40954143 -0.20602207 53.38518691 -0.80682712 59.36064054 C-1.50696258 66.32626867 -2.20165065 73.29243688 -2.89606918 80.25863688 C-4.13551186 92.69072392 -5.37949674 105.12235214 -6.6262207 117.55371094 C-7.83477431 129.60453653 -9.04069615 141.65562121 -10.2434082 153.70703125 C-10.31751769 154.44961668 -10.39162718 155.19220211 -10.4679824 155.95729013 C-10.76590567 158.9425806 -11.06382183 161.92787178 -11.36172583 164.91316418 C-12.64819283 177.80414546 -13.93686097 190.69490684 -15.22579351 203.5856418 C-15.43402853 205.6684112 -15.64221041 207.7511859 -15.85037875 209.83396196 C-16.64127067 217.74653862 -17.43325288 225.65900475 -18.22685623 233.57131004 C-18.46704591 235.96740954 -18.70690531 238.36354217 -18.94640923 240.75971031 C-19.27355843 244.03200913 -19.60193988 247.304182 -19.9306488 250.57632446 C-20.0721901 251.9960806 -20.0721901 251.9960806 -20.21659082 253.44451869 C-20.30566676 254.32861237 -20.3947427 255.21270606 -20.48651791 256.12359047 C-20.56208225 256.8776104 -20.6376466 257.63163034 -20.71550077 258.40849936 C-21.10359317 261.94362913 -21.55888675 265.47109403 -22 269 C57.86 269 137.72 269 220 269 C220 269.99 220 270.98 220 272 C138.49 272 56.98 272 -27 272 C-25.8512918 253.62066877 -25.8512918 253.62066877 -24.93737793 244.67002869 C-24.83514026 243.64449231 -24.73290259 242.61895594 -24.62756681 241.5623427 C-24.29034997 238.18702323 -23.94890948 234.8121457 -23.60742188 231.43725586 C-23.36234154 228.99310804 -23.11752152 226.54893412 -22.87294006 224.10473633 C-22.28078862 218.19409448 -21.68588103 212.28373404 -21.08964264 206.37350344 C-20.39433186 199.48002111 -19.70220841 192.58621984 -19.01018876 185.69240648 C-17.77537298 173.39242649 -16.5376759 161.09273817 -15.29833984 148.79321289 C-14.09727797 136.87350833 -12.89831665 124.95359492 -11.70166016 113.03344727 C-11.62781339 112.29784676 -11.55396663 111.56224626 -11.47788209 110.80435484 C-11.40415936 110.06998819 -11.33043663 109.33562155 -11.25447989 108.57900137 C-9.88871762 94.97453516 -8.52102036 81.3702641 -7.1524069 67.76608444 C-6.6695217 62.96571717 -6.18720358 58.1652931 -5.70506287 53.364851 C-5.05645638 46.90742588 -4.40619878 40.45016824 -3.75485039 33.9930191 C-3.51610251 31.62392523 -3.27785129 29.25478124 -3.04013252 26.88558388 C-2.71565701 23.65262317 -2.38937252 20.41984999 -2.06262207 17.18711853 C-1.92210395 15.78080505 -1.92210395 15.78080505 -1.77874708 14.3460812 C-1.29126728 9.54378712 -0.7227275 4.77272963 0 0 Z " fill="#03050C" transform="translate(310,403)"/>
<path d="M0 0 C0.99 0 1.98 0 3 0 C3.25881098 5.95265252 2.27604787 11.17803161 1 17 C4.63 17 8.26 17 12 17 C10.59782523 30.31883614 8.13811697 43.36570192 5.5625 56.5 C4.96383502 59.58016904 4.36665809 62.66062427 3.76951599 65.74108887 C3.40118932 67.63822352 3.03173279 69.53513942 2.66078186 71.4317627 C1.06237737 79.61356003 -0.46350036 87.80533524 -2 96 C35.95 96 73.9 96 113 96 C113.33 92.37 113.66 88.74 114 85 C114.54058228 81.5246397 115.11002023 78.07495871 115.7421875 74.6171875 C115.91122589 73.67747101 116.08026428 72.73775452 116.25442505 71.76956177 C116.61005856 69.80117495 116.96814649 67.8332301 117.32861328 65.86572266 C117.87467352 62.87678704 118.40845425 59.88582854 118.94140625 56.89453125 C119.29092658 54.96861554 119.64116277 53.04282958 119.9921875 51.1171875 C120.22674149 49.79495682 120.22674149 49.79495682 120.46603394 48.4460144 C121.51851095 42.77281093 123.03094078 37.42330068 125 32 C125.99 32 126.98 32 128 32 C127.46471331 40.35584158 126.33929845 48.44354565 124.75 56.66015625 C124.42273926 58.38860023 124.42273926 58.38860023 124.08886719 60.15196228 C123.63112951 62.56336273 123.17048368 64.97421284 122.70703125 67.38452148 C121.99613255 71.0826185 121.2941966 74.7823323 120.59375 78.48242188 C120.14634823 80.83343138 119.69844952 83.18434638 119.25 85.53515625 C119.03956055 86.64133804 118.82912109 87.74751984 118.61230469 88.88722229 C118.41540039 89.90936325 118.21849609 90.93150421 118.015625 91.98461914 C117.75700684 93.33264366 117.75700684 93.33264366 117.49316406 94.707901 C117 97 117 97 116 100 C79.37 100 42.74 100 5 100 C5 103.63 5 107.26 5 111 C4.8332964 113.560145 4.62745388 116.11819649 4.37329102 118.67114258 C4.30662231 119.35561462 4.23995361 120.04008667 4.17126465 120.74530029 C3.95399637 122.96225899 3.72913085 125.17836798 3.50390625 127.39453125 C3.34894704 128.95623246 3.19440867 130.51797548 3.04026794 132.07975769 C2.71820676 135.33174921 2.39263983 138.5833625 2.06420898 141.8347168 C1.64442279 145.99111077 1.23114918 150.14811897 0.82019138 154.30539417 C0.50192648 157.52181721 0.18143412 160.73801494 -0.13984871 163.9541378 C-0.29294274 165.48702657 -0.44563179 167.01995584 -0.59789848 168.55292702 C-0.81115727 170.69410926 -1.02712067 172.83500139 -1.24389648 174.97583008 C-1.42709694 176.79803825 -1.42709694 176.79803825 -1.61399841 178.65705872 C-1.97513675 181.78467343 -2.48240696 184.89444174 -3 188 C44.52 188 92.04 188 141 188 C141 188.66 141 189.32 141 190 C91.83 190 42.66 190 -8 190 C-3.33764219 139.87965357 -3.33764219 139.87965357 -1.48925781 121.68310547 C-1.23460508 119.16923811 -0.98417963 116.65497806 -0.734375 114.140625 C-0.6594281 113.41482239 -0.5844812 112.68901978 -0.50726318 111.94122314 C-0.07909191 107.59698581 0.06686541 103.35763269 0 99 C-2.31 98.67 -4.62 98.34 -7 98 C2.81720468 43.07870444 2.81720468 43.07870444 7 22 C5.68 21.67 4.36 21.34 3 21 C3 20.34 3 19.68 3 19 C0.69 19 -1.62 19 -4 19 C-3.52570278 16.01998162 -3.04581304 13.04105713 -2.5625 10.0625 C-2.42779297 9.21236328 -2.29308594 8.36222656 -2.15429688 7.48632812 C-2.02216797 6.67744141 -1.89003906 5.86855469 -1.75390625 5.03515625 C-1.63345947 4.2862915 -1.5130127 3.53742676 -1.38891602 2.76586914 C-1 1 -1 1 0 0 Z " fill="#030304" transform="translate(564,484)"/>
<path d="M0 0 C-0.30987617 2.25036286 -0.62299818 4.50027894 -0.9375 6.75 C-1.19853516 8.62945313 -1.19853516 8.62945313 -1.46484375 10.546875 C-2 14 -2 14 -3 18 C34.95 18 72.9 18 112 18 C112.33 14.7 112.66 11.4 113 8 C114.0625 4.875 114.0625 4.875 115 3 C115.99 3 116.98 3 118 3 C118.48863403 10.16663246 116.90943525 14.36225899 115 22 C77.05 22 39.1 22 0 22 C0 21.34 0 20.68 0 20 C-1.98 20 -3.96 20 -6 20 C-5.98264297 20.67237701 -5.96528595 21.34475403 -5.94740295 22.0375061 C-5.8216959 31.00429679 -6.60101958 39.80455768 -7.49609375 48.7109375 C-7.651088 50.29362683 -7.80562552 51.87636095 -7.95973206 53.45913696 C-8.28154821 56.75225198 -8.60712199 60.04496433 -8.93579102 63.33740234 C-9.3558966 67.54643096 -9.76908645 71.75610135 -10.17980862 75.96605492 C-10.49801377 79.22451357 -10.81851795 82.48274253 -11.13984871 85.74089432 C-11.29293383 87.29332209 -11.4456228 88.84578898 -11.59789848 90.39829636 C-11.81110441 92.56571588 -12.02707871 94.73284151 -12.24389648 96.89990234 C-12.36603012 98.12945648 -12.48816376 99.35901062 -12.61399841 100.62582397 C-12.97300766 103.76405043 -13.48071377 106.88428262 -14 110 C65.86 110 145.72 110 228 110 C228 110.66 228 111.32 228 112 C146.49 112 64.98 112 -19 112 C-14.3942953 62.4886745 -14.3942953 62.4886745 -12.25 41.8125 C-12.02715188 39.6478062 -11.80449652 37.48309255 -11.58203125 35.31835938 C-11.05686598 30.2120124 -10.52924687 25.10592548 -10 20 C-9.01 20 -8.02 20 -7 20 C-6.95101562 19.29875 -6.90203125 18.5975 -6.8515625 17.875 C-6.39229661 12.04707422 -5.75892406 6.58717056 -4 1 C-2 0 -2 0 0 0 Z " fill="#010102" transform="translate(750,562)"/>
<path d="M0 0 C1.32 0 2.64 0 4 0 C4.44788346 11.42331552 3.09351809 22.68477098 1.9362793 34.03125 C1.71404122 36.25351986 1.49232484 38.47584194 1.27108765 40.69821167 C0.67089043 46.71213284 0.06335438 52.72529216 -0.54557443 58.73833466 C-1.18495875 65.06423339 -1.81769876 71.39079682 -2.45121765 77.71728516 C-3.51753058 88.35651547 -4.58812051 98.99530693 -5.66186523 109.63378906 C-6.7601624 120.51562607 -7.85548846 131.39775578 -8.94702148 142.28027344 C-9.01402617 142.94829845 -9.08103086 143.61632346 -9.150066 144.30459166 C-9.41960978 146.99198448 -9.68914165 149.6793785 -9.95865555 152.36677432 C-11.19590082 164.70302996 -12.43564017 177.03903518 -13.67578125 189.375 C-13.79975163 190.6083609 -13.923722 191.8417218 -14.05144906 193.11245728 C-14.77086804 200.26848862 -15.49139828 207.42440667 -16.21344376 214.58017349 C-16.43017826 216.72921915 -16.6466315 218.87829319 -16.8627491 221.02740097 C-18.50556892 237.35969606 -20.25122606 253.67810987 -22 270 C9.68 270 41.36 270 74 270 C73.67 270.66 73.34 271.32 73 272 C40 272 7 272 -27 272 C-22.39893543 222.53855591 -22.39893543 222.53855591 -20.54223633 203.85058594 C-20.32641928 201.66844692 -20.11070987 199.48629726 -19.89509583 197.30413818 C-19.32621915 191.55008218 -18.75578654 185.79618158 -18.18491578 180.04232311 C-17.70459079 175.1994602 -17.22509754 170.35651507 -16.74559134 165.51357102 C-15.61613022 154.10626397 -14.48539243 142.69908401 -13.35375977 131.29199219 C-12.18977604 119.55859472 -11.0278694 107.82499285 -9.86695653 96.09129119 C-8.86245455 85.93912143 -7.85677733 75.78706857 -6.85013217 65.63511109 C-6.25203154 59.60323781 -5.65435218 53.5713236 -5.05777931 47.53929901 C-4.50013618 41.90148333 -3.94102151 36.2638155 -3.38076591 30.62625885 C-3.17585866 28.56191667 -2.97146719 26.49752322 -2.76763153 24.43307495 C-2.4893391 21.61537778 -2.20917589 18.79787262 -1.92854309 15.98040771 C-1.84858355 15.16633823 -1.76862401 14.35226875 -1.68624145 13.51353049 C-1.2332167 8.9883775 -0.67637449 4.49735508 0 0 Z " fill="#020307" transform="translate(37,402)"/>
<path d="M0 0 C1.32 0 2.64 0 4 0 C4.48805922 11.61464745 3.02486256 23.07828537 1.8125 34.609375 C1.58776575 36.78935361 1.36357197 38.969388 1.13989258 41.1494751 C0.55343418 46.85123411 -0.04030267 52.55221184 -0.63562012 58.25305176 C-1.35038105 65.11260169 -2.05598939 71.97309856 -2.76315308 78.83343506 C-3.83513742 89.22302744 -4.91865443 99.61135859 -6 110 C25.02 110 56.04 110 88 110 C88 110.33 88 110.66 88 111 C59.29 111 30.58 111 1 111 C0.67 114.3 0.34 117.6 0 121 C-0.33 123.64 -0.66 126.28 -1 129 C17.15 129 35.3 129 54 129 C52.66383519 131.67232963 50.87025778 132.29385833 48.17404175 133.38247681 C43.99778781 134.56871606 39.78189112 134.36333808 35.47265625 134.29296875 C33.98928017 134.28660149 33.98928017 134.28660149 32.47593689 134.28010559 C29.33783991 134.26340129 26.20040072 134.22576415 23.0625 134.1875 C20.92644161 134.17244251 18.79037309 134.15875597 16.65429688 134.14648438 C11.43597598 134.11352493 6.218035 134.06340838 1 134 C1 133.34 1 132.68 1 132 C-1.31 132 -3.62 132 -6 132 C-5.56367091 125.11059329 -4.91610155 118.64248536 -3 112 C-5.31 112 -7.62 112 -10 112 C-10.87120707 109.07244713 -11.05127461 106.76426129 -10.74734497 103.73173523 C-10.66602325 102.88652313 -10.58470154 102.04131104 -10.50091553 101.17048645 C-10.40538391 100.25144028 -10.30985229 99.3323941 -10.21142578 98.38549805 C-10.1156424 97.41104736 -10.01985901 96.43659668 -9.9211731 95.43261719 C-9.60252496 92.20828531 -9.27401521 88.98503989 -8.9453125 85.76171875 C-8.72151653 83.51981595 -8.4982883 81.27785641 -8.27560425 79.0358429 C-7.8071942 74.33377048 -7.33434104 69.63217461 -6.85791016 64.9309082 C-6.24800575 58.91249422 -5.64530251 52.89338942 -5.04545784 46.87396526 C-4.47266959 41.12798961 -3.89679563 35.38232473 -3.3203125 29.63671875 C-3.21073338 28.54307196 -3.10115425 27.44942516 -2.98825455 26.32263756 C-2.67628632 23.21581637 -2.36219339 20.10921788 -2.04736328 17.00268555 C-1.95588013 16.08971207 -1.86439697 15.17673859 -1.7701416 14.23609924 C-1.28470633 9.47073827 -0.71591738 4.73637244 0 0 Z " fill="#0C0D0F" transform="translate(758,402)"/>
<path d="M0 0 C1.32 0 2.64 0 4 0 C3.36999789 11.48160133 2.39362242 22.9005606 1.23413086 34.33984375 C1.05639004 36.11555467 0.87891272 37.89129198 0.70167542 39.66705322 C0.22506935 44.43481828 -0.25516973 49.20221087 -0.7361176 53.96953964 C-1.24008516 58.97142069 -1.74063352 63.97364392 -2.24156189 68.97583008 C-3.18828719 78.42451824 -4.13803769 87.8728997 -5.08890575 97.32117176 C-6.17229388 108.0877268 -7.25226294 118.85462397 -8.3319608 129.62154961 C-10.55086633 151.74807948 -12.77401367 173.87418143 -15 196 C-16.65 196 -18.3 196 -20 196 C-16.60713475 158.39787254 -12.84291868 120.83241528 -9.08770359 83.26516342 C-8.39001981 76.2825242 -7.69608364 69.29951584 -7.00284225 62.31643438 C-6.32664718 55.50683889 -5.6478082 48.69751031 -4.96690148 41.88838434 C-4.56343411 37.85317417 -4.16104901 33.81786341 -3.76140785 29.78227234 C-3.38929902 26.02551425 -3.01391636 22.26909792 -2.63595581 18.51292419 C-2.49809097 17.13714505 -2.36141455 15.76124623 -2.22600365 14.38522339 C-2.04146443 12.51182835 -1.85225748 10.63889485 -1.66279602 8.76599121 C-1.55829793 7.71845421 -1.45379984 6.67091721 -1.34613514 5.59163666 C-1 3 -1 3 0 0 Z " fill="#010307" transform="translate(458,402)"/>
<path d="M0 0 C1.32 0 2.64 0 4 0 C2.36246986 13.58808215 -0.45811508 26.96077299 -3.125 40.375 C-3.59799169 42.76816289 -4.07065072 45.16139156 -4.54296875 47.5546875 C-5.69086372 53.3706887 -6.84557501 59.18527636 -8 65 C7.18 65 22.36 65 38 65 C38.33 61.37 38.66 57.74 39 54 C39.30531422 51.98637628 39.6415727 49.97674757 40.03149414 47.9777832 C40.33169212 46.41741081 40.33169212 46.41741081 40.63795471 44.82551575 C40.85153122 43.74485336 41.06510773 42.66419098 41.28515625 41.55078125 C41.50570175 40.41215134 41.72624725 39.27352142 41.95347595 38.10038757 C42.65139015 34.5034119 43.35681332 30.90795798 44.0625 27.3125 C44.5402129 24.85751899 45.01743122 22.40244169 45.49414062 19.94726562 C46.65704713 13.96371902 47.82610377 7.98139972 49 2 C50.65 2 52.3 2 54 2 C51.63214537 16.17597177 49.03595914 30.30609973 46.359375 44.42657471 C45.99427262 46.35326398 45.63018033 48.28014493 45.26708984 50.20721436 C44.75025349 52.9473523 44.22928894 55.68667206 43.70703125 58.42578125 C43.54987137 59.26129013 43.39271149 60.09679901 43.23078918 60.95762634 C42.11471647 66.77056706 42.11471647 66.77056706 41 69 C25.49 69 9.98 69 -6 69 C-6 68.34 -6 67.68 -6 67 C-8.31 67 -10.62 67 -13 67 C-10.3292719 51.77591274 -7.57645626 36.56811979 -4.72024536 21.3777771 C-4.40661646 19.70855652 -4.09401548 18.03914248 -3.78244019 16.36953735 C-3.34241451 14.01399554 -2.8983711 11.65924738 -2.453125 9.3046875 C-2.32102127 8.59445938 -2.18891754 7.88423126 -2.05281067 7.15248108 C-1.11455102 2.22910203 -1.11455102 2.22910203 0 0 Z " fill="#060606" transform="translate(697,515)"/>
<path d="M0 0 C-0.30987617 2.25036286 -0.62299818 4.50027894 -0.9375 6.75 C-1.11152344 8.00296875 -1.28554688 9.2559375 -1.46484375 10.546875 C-2 14 -2 14 -3 18 C34.95 18 72.9 18 112 18 C112.33 14.7 112.66 11.4 113 8 C114.0625 4.875 114.0625 4.875 115 3 C115.99 3 116.98 3 118 3 C118.48863403 10.16663246 116.90943525 14.36225899 115 22 C81.67 22 48.34 22 14 22 C13.67 26.62 13.34 31.24 13 36 C11.35 36 9.7 36 8 36 C8.14133499 34.22880197 8.28823208 32.45804713 8.4375 30.6875 C8.51871094 29.70136719 8.59992187 28.71523438 8.68359375 27.69921875 C9 25 9 25 10 22 C6.7 22 3.4 22 0 22 C0 21.34 0 20.68 0 20 C-2.31 20 -4.62 20 -7 20 C-6.54441317 13.47791483 -5.96929556 7.25540943 -4 1 C-2 0 -2 0 0 0 Z " fill="#010101" transform="translate(878,562)"/>
<path d="M0 0 C16.17 0 32.34 0 49 0 C47.84888041 21.8712723 47.84888041 21.8712723 46.9140625 31.71875 C46.76181465 33.36760696 46.76181465 33.36760696 46.60649109 35.04977417 C46.28339884 38.53357691 45.95450345 42.01679833 45.625 45.5 C45.3986171 47.92268277 45.17229913 50.34537161 44.94604492 52.76806641 C43.73514444 65.65852918 42.46004826 78.53535024 40.96020508 91.39575195 C39.70549882 102.24032529 38.83400399 113.11602327 38 124 C36.35 124 34.7 124 33 124 C34.62382969 101.81576812 36.79495309 79.68342848 38.94116211 57.54492188 C39.46502285 52.13970657 39.98369302 46.7340062 40.5011301 41.32817268 C40.90276488 37.13990956 41.3075953 32.95195998 41.71336174 28.76409531 C41.90625024 26.76826558 42.09801828 24.77232723 42.28863716 22.77627945 C42.5531038 20.01083691 42.82199222 17.24585925 43.09204102 14.48095703 C43.1694603 13.6614003 43.24687958 12.84184357 43.3266449 11.99745178 C43.63891581 8.83942206 43.99277445 6.02167665 45 3 C30.15 3 15.3 3 0 3 C0 2.01 0 1.02 0 0 Z " fill="#03060D" transform="translate(133,474)"/>
<path d="M0 0 C1.32 0.33 2.64 0.66 4 1 C2.68 8.59 1.36 16.18 0 24 C15.18 24.33 30.36 24.66 46 25 C46 25.33 46 25.66 46 26 C32.8 26 19.6 26 6 26 C5.34 31.94 4.68 37.88 4 44 C7.63 44 11.26 44 15 44 C14.30912783 47.9332133 13.61528538 51.86588988 12.91870117 55.7980957 C12.68220892 57.13551692 12.446525 58.47308134 12.21166992 59.81079102 C11.87371594 61.73491378 11.53260161 63.65848062 11.19140625 65.58203125 C10.98717041 66.73936768 10.78293457 67.8967041 10.57250977 69.08911133 C10 72 10 72 9 75 C7.68 75 6.36 75 5 75 C5.75404715 66.55467195 7.37828042 58.31258777 9 50 C7.515 49.505 7.515 49.505 6 49 C6 48.34 6 47.68 6 47 C3.69 47 1.38 47 -1 47 C-0.51358785 40.15182898 0.35993952 33.66957927 2 27 C1.01 27 0.02 27 -1 27 C-1.09152344 28.25554688 -1.18304687 29.51109375 -1.27734375 30.8046875 C-2.13006337 39.33188371 -3.93442285 47.71954118 -5.5625 56.125 C-5.89558453 57.86190208 -6.2282702 59.59888069 -6.56054688 61.3359375 C-7.36909971 65.5581886 -8.18305169 69.77936563 -9 74 C-11.475 74.495 -11.475 74.495 -14 75 C-12.80711662 64.96005041 -11.13824714 55.11602861 -9.08526611 45.21969604 C-8.29540963 41.41050552 -7.52160106 37.59808111 -6.75 33.78515625 C-6.59786041 33.03379898 -6.44572083 32.28244171 -6.28897095 31.50831604 C-4.75774675 23.89053551 -3.41476168 16.24331876 -2.15478516 8.57617188 C-2.01347168 7.72474609 -1.8721582 6.87332031 -1.7265625 5.99609375 C-1.60877441 5.26575928 -1.49098633 4.5354248 -1.36962891 3.78295898 C-1 2 -1 2 0 0 Z " fill="#0F0F0F" transform="translate(625,487)"/>
<path d="M0 0 C1.32 0 2.64 0 4 0 C3.3943037 15.03593169 2.02356351 29.95071155 0.49609375 44.91796875 C0.25050757 47.3570009 0.00532128 49.79607334 -0.23948669 52.23518372 C-0.87830446 58.58934406 -1.52247632 64.94295005 -2.16784668 71.29644775 C-2.82808599 77.80602343 -3.48314708 84.31612005 -4.13867188 90.82617188 C-5.42077489 103.55128987 -6.70837051 116.27584561 -8 129 C-9.65 129 -11.3 129 -13 129 C-10.54938519 100.91007682 -7.84480286 72.84537189 -5.08584595 44.78434372 C-4.81204873 41.99540331 -4.53941359 39.20635148 -4.26708984 36.41726685 C-3.83265964 31.96985443 -3.39507999 27.52276272 -2.95506859 23.07589912 C-2.79085404 21.41188873 -2.6276331 19.74777994 -2.46544838 18.08357048 C-2.2412718 15.78589217 -2.01333529 13.48861698 -1.78442383 11.19140625 C-1.65659012 9.89404541 -1.52875641 8.59668457 -1.39704895 7.26000977 C-1.08997242 4.73872748 -0.70700725 2.43083231 0 0 Z " fill="#02040A" transform="translate(588,353)"/>
<path d="M0 0 C1.32 0 2.64 0 4 0 C3.71422932 2.02167552 3.42108213 4.04230888 3.125 6.0625 C2.96257812 7.18785156 2.80015625 8.31320312 2.6328125 9.47265625 C2.42398438 10.63667969 2.21515625 11.80070313 2 13 C1.80092041 14.14774902 1.60184082 15.29549805 1.39672852 16.47802734 C-0.11759198 20.29651843 -1.27259126 21.28202164 -4.93318176 23.00511169 C-5.60878647 23.2934639 -6.28439117 23.5818161 -6.98046875 23.87890625 C-8.43941028 24.55328882 -9.89822713 25.22794117 -11.35693359 25.90283203 C-12.11955505 26.2450177 -12.88217651 26.58720337 -13.66790771 26.9397583 C-17.5259159 28.69372883 -21.31332758 30.5893371 -25.11328125 32.46484375 C-26.64199842 33.21017456 -28.17129715 33.95431372 -29.70117188 34.69726562 C-32.82738025 36.21563367 -35.95221597 37.73676895 -39.07617188 39.25976562 C-40.58845424 39.99497154 -42.10082072 40.73000444 -43.61328125 41.46484375 C-44.3131868 41.80644028 -45.01309235 42.1480368 -45.73420715 42.49998474 C-50.87370132 44.99074031 -54.47755289 46.12389728 -60.1875 46.0625 C-61.81751953 46.04896484 -61.81751953 46.04896484 -63.48046875 46.03515625 C-64.31191406 46.02355469 -65.14335938 46.01195312 -66 46 C-64.55678058 43.11356116 -62.64945398 42.74275123 -59.7265625 41.41796875 C-58.60403076 40.90403564 -57.48149902 40.39010254 -56.32495117 39.8605957 C-55.09164829 39.30286578 -53.85833088 38.745168 -52.625 38.1875 C-50.0699492 37.02185234 -47.51716552 35.85129696 -44.96484375 34.6796875 C-44.30932022 34.37930069 -43.65379669 34.07891388 -42.97840881 33.76942444 C-38.4187116 31.67296431 -33.89061907 29.51799866 -29.37890625 27.3203125 C-28.46573639 26.87607689 -28.46573639 26.87607689 -27.53411865 26.42286682 C-24.61816247 25.00245185 -21.70595365 23.5748479 -18.79736328 22.1394043 C-13.58684043 19.59711232 -8.65672773 17.31533041 -3 16 C-2.95101562 15.43152344 -2.90203125 14.86304688 -2.8515625 14.27734375 C-2.36856919 9.28918871 -1.52361837 4.77400422 0 0 Z " fill="#080808" transform="translate(1002,516)"/>
<path d="M0 0 C1.32 0 2.64 0 4 0 C3.71422932 2.02167552 3.42108213 4.04230888 3.125 6.0625 C2.96257812 7.18785156 2.80015625 8.31320312 2.6328125 9.47265625 C2.42398438 10.63667969 2.21515625 11.80070313 2 13 C1.80092041 14.14774902 1.60184082 15.29549805 1.39672852 16.47802734 C-0.11759198 20.29651843 -1.27259126 21.28202164 -4.93318176 23.00511169 C-5.60878647 23.2934639 -6.28439117 23.5818161 -6.98046875 23.87890625 C-8.43941028 24.55328882 -9.89822713 25.22794117 -11.35693359 25.90283203 C-12.11955505 26.2450177 -12.88217651 26.58720337 -13.66790771 26.9397583 C-17.5259159 28.69372883 -21.31332758 30.5893371 -25.11328125 32.46484375 C-26.64199842 33.21017456 -28.17129715 33.95431372 -29.70117188 34.69726562 C-32.82738025 36.21563367 -35.95221597 37.73676895 -39.07617188 39.25976562 C-40.58845424 39.99497154 -42.10082072 40.73000444 -43.61328125 41.46484375 C-44.3131868 41.80644028 -45.01309235 42.1480368 -45.73420715 42.49998474 C-50.87370132 44.99074031 -54.47755289 46.12389728 -60.1875 46.0625 C-61.81751953 46.04896484 -61.81751953 46.04896484 -63.48046875 46.03515625 C-64.31191406 46.02355469 -65.14335938 46.01195312 -66 46 C-64.55678058 43.11356116 -62.64945398 42.74275123 -59.7265625 41.41796875 C-58.60403076 40.90403564 -57.48149902 40.39010254 -56.32495117 39.8605957 C-55.09164829 39.30286578 -53.85833088 38.745168 -52.625 38.1875 C-50.0699492 37.02185234 -47.51716552 35.85129696 -44.96484375 34.6796875 C-44.30932022 34.37930069 -43.65379669 34.07891388 -42.97840881 33.76942444 C-38.4187116 31.67296431 -33.89061907 29.51799866 -29.37890625 27.3203125 C-28.46573639 26.87607689 -28.46573639 26.87607689 -27.53411865 26.42286682 C-24.61816247 25.00245185 -21.70595365 23.5748479 -18.79736328 22.1394043 C-13.58684043 19.59711232 -8.65672773 17.31533041 -3 16 C-2.95101562 15.43152344 -2.90203125 14.86304688 -2.8515625 14.27734375 C-2.36856919 9.28918871 -1.52361837 4.77400422 0 0 Z " fill="#080808" transform="translate(874,516)"/>
<path d="M0 0 C-1.0921189 16.38178354 -3.08168321 32.69430724 -5 49 C26.02 49 57.04 49 89 49 C89 49.66 89 50.32 89 51 C56.33 51 23.66 51 -10 51 C-7.43269231 22.75961538 -7.43269231 22.75961538 -6.625 15.375 C-6.52445313 14.31539062 -6.42390625 13.25578125 -6.3203125 12.1640625 C-6.206875 11.14828125 -6.0934375 10.1325 -5.9765625 9.0859375 C-5.88455566 8.1995459 -5.79254883 7.3131543 -5.69775391 6.39990234 C-4.96790098 3.88959643 -3.07062283 0 0 0 Z " fill="#010103" transform="translate(168,623)"/>
<path d="M0 0 C16.17 0 32.34 0 49 0 C48.38628413 8.59202212 47.76674758 17.17201144 47 25.75 C46.9175 26.719375 46.835 27.68875 46.75 28.6875 C46.6675 29.61046875 46.585 30.5334375 46.5 31.484375 C46.4278125 32.30647461 46.355625 33.12857422 46.28125 33.97558594 C46 36 46 36 45 38 C76.35 38 107.7 38 140 38 C140 38.33 140 38.66 140 39 C107.33 39 74.66 39 41 39 C41.66794749 26.97694522 42.67022833 14.96794499 44 3 C29.48 3 14.96 3 0 3 C0 2.01 0 1.02 0 0 Z " fill="#141822" transform="translate(854,474)"/>
<path d="M0 0 C1.32 0 2.64 0 4 0 C3.34 5.61 2.68 11.22 2 17 C20.15 17 38.3 17 57 17 C55.66383519 19.67232963 53.87025778 20.29385833 51.17404175 21.38247681 C46.99778781 22.56871606 42.78189112 22.36333808 38.47265625 22.29296875 C36.98928017 22.28660149 36.98928017 22.28660149 35.47593689 22.28010559 C32.33783991 22.26340129 29.20040072 22.22576415 26.0625 22.1875 C23.92644161 22.17244251 21.79037309 22.15875597 19.65429688 22.14648438 C14.43597598 22.11352493 9.218035 22.06340838 4 22 C4 21.34 4 20.68 4 20 C1.69 20 -0.62 20 -3 20 C-2.56367091 13.11059329 -1.91610155 6.64248536 0 0 Z " fill="#0E0E0E" transform="translate(883,514)"/>
<path d="M0 0 C15.51 0 31.02 0 47 0 C47 0.99 47 1.98 47 3 C31.49 3 15.98 3 0 3 C0 2.01 0 1.02 0 0 Z " fill="#070E1D" transform="translate(679,474)"/>
</svg>
